<svg width="126" height="60" viewBox="0 0 126 60" fill="none" xmlns="http://www.w3.org/2000/svg">
<g filter="url(#filter0_dii_4068_149)">
<rect x="9.99976" width="106" height="40" rx="4" fill="#03031F" fill-opacity="0.6" shape-rendering="crispEdges"/>
<path d="M41.9998 13V27C41.9998 27.5522 41.552 28 40.9998 28H29.9998C29.4475 28 28.9998 27.5522 28.9998 27C28.9998 26.4478 29.4475 26 29.9998 26H39.9998V14H29.9998C29.4475 14 28.9998 13.5522 28.9998 13C28.9998 12.4478 29.4475 12 29.9998 12H40.9998C41.552 12 41.9998 12.4478 41.9998 13ZM33.9998 20C33.9998 19.4478 33.552 19 32.9998 19H26.9998C26.4475 19 25.9998 19.4478 25.9998 20C25.9998 20.5522 26.4475 21 26.9998 21H32.9998C33.552 21 33.9998 20.5522 33.9998 20Z" fill="white"/>
<path d="M9.99976 0H65.9998L50.9998 40H9.99976V0Z" fill="url(#paint0_linear_4068_149)"/>
<path d="M9.99976 0H41.9998L26.9998 40H9.99976V0Z" fill="url(#paint1_linear_4068_149)"/>
<path d="M55.1838 26.16C54.2771 26.16 53.4398 26.048 52.6718 25.824C51.9144 25.5893 51.2638 25.2693 50.7198 24.864L51.3598 23.248C51.7224 23.504 52.1011 23.7227 52.4958 23.904C52.8904 24.0747 53.3118 24.208 53.7598 24.304C54.2078 24.3893 54.6824 24.432 55.1838 24.432C56.0264 24.432 56.6344 24.2933 57.0078 24.016C57.3811 23.7387 57.5678 23.376 57.5678 22.928C57.5678 22.5333 57.4398 22.2347 57.1838 22.032C56.9278 21.8187 56.4691 21.6427 55.8078 21.504L53.9998 21.136C52.9651 20.9227 52.1918 20.5653 51.6798 20.064C51.1678 19.5627 50.9118 18.8907 50.9118 18.048C50.9118 17.344 51.0984 16.7307 51.4718 16.208C51.8451 15.6853 52.3678 15.28 53.0398 14.992C53.7118 14.704 54.4958 14.56 55.3918 14.56C56.1918 14.56 56.9331 14.6773 57.6158 14.912C58.2984 15.136 58.8691 15.4613 59.3278 15.888L58.6878 17.424C58.2291 17.04 57.7278 16.7573 57.1838 16.576C56.6398 16.384 56.0318 16.288 55.3598 16.288C54.6024 16.288 54.0104 16.4373 53.5838 16.736C53.1678 17.024 52.9598 17.424 52.9598 17.936C52.9598 18.3307 53.0878 18.6453 53.3438 18.88C53.6104 19.1147 54.0584 19.296 54.6878 19.424L56.4798 19.776C57.5464 19.9893 58.3358 20.3413 58.8478 20.832C59.3598 21.312 59.6158 21.9627 59.6158 22.784C59.6158 23.456 59.4344 24.048 59.0718 24.56C58.7091 25.0613 58.1971 25.456 57.5358 25.744C56.8744 26.0213 56.0904 26.16 55.1838 26.16ZM60.9203 26V17.92H62.9203V26H60.9203ZM60.8083 16.4V14.448H63.0323V16.4H60.8083ZM68.3561 29.584C67.6095 29.584 66.9321 29.504 66.3241 29.344C65.7268 29.184 65.1935 28.9387 64.7241 28.608L65.1561 27.168C65.4655 27.3707 65.7855 27.536 66.1161 27.664C66.4468 27.792 66.7881 27.888 67.1401 27.952C67.4921 28.016 67.8495 28.048 68.2121 28.048C68.9588 28.048 69.5135 27.8613 69.8761 27.488C70.2495 27.1253 70.4361 26.6027 70.4361 25.92V23.984H70.5961C70.4255 24.5387 70.0788 24.9813 69.5561 25.312C69.0441 25.6427 68.4521 25.808 67.7801 25.808C67.0548 25.808 66.4201 25.648 65.8761 25.328C65.3428 24.9973 64.9268 24.528 64.6281 23.92C64.3295 23.312 64.1801 22.5973 64.1801 21.776C64.1801 20.9547 64.3295 20.2453 64.6281 19.648C64.9268 19.04 65.3428 18.576 65.8761 18.256C66.4201 17.9253 67.0548 17.76 67.7801 17.76C68.4628 17.76 69.0548 17.9253 69.5561 18.256C70.0681 18.576 70.4095 19.0133 70.5801 19.568L70.4361 19.472L70.5961 17.92H72.5321C72.4895 18.2507 72.4575 18.5867 72.4361 18.928C72.4148 19.2693 72.4041 19.6053 72.4041 19.936V25.68C72.4041 26.9493 72.0575 27.9147 71.3641 28.576C70.6815 29.248 69.6788 29.584 68.3561 29.584ZM68.3241 24.272C68.9641 24.272 69.4708 24.0587 69.8441 23.632C70.2281 23.1947 70.4201 22.576 70.4201 21.776C70.4201 20.976 70.2281 20.3627 69.8441 19.936C69.4708 19.5093 68.9641 19.296 68.3241 19.296C67.6735 19.296 67.1561 19.5093 66.7721 19.936C66.3881 20.3627 66.1961 20.976 66.1961 21.776C66.1961 22.576 66.3881 23.1947 66.7721 23.632C67.1561 24.0587 67.6735 24.272 68.3241 24.272ZM74.0853 26V19.936C74.0853 19.6053 74.0746 19.2693 74.0533 18.928C74.0319 18.5867 73.9999 18.2507 73.9573 17.92H75.8933L76.0533 19.52H75.8613C76.1173 18.9547 76.4959 18.5227 76.9973 18.224C77.4986 17.9147 78.0799 17.76 78.7413 17.76C79.6906 17.76 80.4053 18.0267 80.8853 18.56C81.3653 19.0933 81.6053 19.9253 81.6053 21.056V26H79.6053V21.152C79.6053 20.5013 79.4773 20.0373 79.2213 19.76C78.9759 19.472 78.6026 19.328 78.1013 19.328C77.4826 19.328 76.9919 19.52 76.6293 19.904C76.2666 20.288 76.0853 20.8 76.0853 21.44V26H74.0853ZM87.3165 26V14.72H89.3805V26H87.3165ZM91.2234 26V19.936C91.2234 19.6053 91.2127 19.2693 91.1914 18.928C91.17 18.5867 91.138 18.2507 91.0954 17.92H93.0314L93.1914 19.52H92.9994C93.2554 18.9547 93.634 18.5227 94.1354 18.224C94.6367 17.9147 95.218 17.76 95.8794 17.76C96.8287 17.76 97.5434 18.0267 98.0234 18.56C98.5034 19.0933 98.7434 19.9253 98.7434 21.056V26H96.7434V21.152C96.7434 20.5013 96.6154 20.0373 96.3594 19.76C96.114 19.472 95.7407 19.328 95.2394 19.328C94.6207 19.328 94.13 19.52 93.7674 19.904C93.4047 20.288 93.2234 20.8 93.2234 21.44V26H91.2234Z" fill="white"/>
<rect x="10.4998" y="0.5" width="105" height="39" rx="3.5" stroke="#B8B8E3" stroke-opacity="0.08" shape-rendering="crispEdges"/>
</g>
<defs>
<filter id="filter0_dii_4068_149" x="-0.000244141" y="0" width="126" height="60" filterUnits="userSpaceOnUse" color-interpolation-filters="sRGB">
<feFlood flood-opacity="0" result="BackgroundImageFix"/>
<feColorMatrix in="SourceAlpha" type="matrix" values="0 0 0 0 0 0 0 0 0 0 0 0 0 0 0 0 0 0 127 0" result="hardAlpha"/>
<feOffset dy="10"/>
<feGaussianBlur stdDeviation="5"/>
<feComposite in2="hardAlpha" operator="out"/>
<feColorMatrix type="matrix" values="0 0 0 0 0.0250694 0 0 0 0 0.0250694 0 0 0 0 0.158333 0 0 0 0.55 0"/>
<feBlend mode="normal" in2="BackgroundImageFix" result="effect1_dropShadow_4068_149"/>
<feBlend mode="normal" in="SourceGraphic" in2="effect1_dropShadow_4068_149" result="shape"/>
<feColorMatrix in="SourceAlpha" type="matrix" values="0 0 0 0 0 0 0 0 0 0 0 0 0 0 0 0 0 0 127 0" result="hardAlpha"/>
<feOffset dy="1"/>
<feComposite in2="hardAlpha" operator="arithmetic" k2="-1" k3="1"/>
<feColorMatrix type="matrix" values="0 0 0 0 0.742778 0 0 0 0 0.742778 0 0 0 0 0.933333 0 0 0 0.15 0"/>
<feBlend mode="normal" in2="shape" result="effect2_innerShadow_4068_149"/>
<feColorMatrix in="SourceAlpha" type="matrix" values="0 0 0 0 0 0 0 0 0 0 0 0 0 0 0 0 0 0 127 0" result="hardAlpha"/>
<feOffset dy="-8"/>
<feComposite in2="hardAlpha" operator="arithmetic" k2="-1" k3="1"/>
<feColorMatrix type="matrix" values="0 0 0 0 0.0212674 0 0 0 0 0.0212674 0 0 0 0 0.104167 0 0 0 0.4 0"/>
<feBlend mode="normal" in2="effect2_innerShadow_4068_149" result="effect3_innerShadow_4068_149"/>
</filter>
<linearGradient id="paint0_linear_4068_149" x1="28.4388" y1="-9.16107e-08" x2="28.4388" y2="40" gradientUnits="userSpaceOnUse">
<stop stop-color="#B8B8E3" stop-opacity="0.1"/>
<stop offset="1" stop-color="white" stop-opacity="0"/>
</linearGradient>
<linearGradient id="paint1_linear_4068_149" x1="20.5363" y1="-9.16107e-08" x2="20.5363" y2="40" gradientUnits="userSpaceOnUse">
<stop stop-color="#B8B8E3" stop-opacity="0.1"/>
<stop offset="1" stop-color="white" stop-opacity="0"/>
</linearGradient>
</defs>
</svg>
