<svg width="126" height="60" viewBox="0 0 126 60" fill="none" xmlns="http://www.w3.org/2000/svg">
<g filter="url(#filter0_dii_4106_2)">
<rect x="9.99976" width="116" height="40" rx="4" fill="#FCB223"/>
<path d="M9.99976 0H65.9998L50.9998 40H9.99976V0Z" fill="url(#paint0_linear_4106_2)"/>
<path d="M9.99976 0H41.9998L26.9998 40H9.99976V0Z" fill="url(#paint1_linear_4106_2)"/>
<path d="M34.9996 21C37.7565 21 39.9996 18.7568 39.9996 16C39.9996 13.2432 37.7565 11 34.9996 11C32.2428 11 29.9996 13.2432 29.9996 16C29.9996 18.7568 32.2428 21 34.9996 21ZM34.9996 13C36.6539 13 37.9996 14.3457 37.9996 16C37.9996 17.6543 36.6539 19 34.9996 19C33.3453 19 31.9996 17.6543 31.9996 16C31.9996 14.3457 33.3453 13 34.9996 13ZM43.5177 28.8555C43.3561 28.9536 43.1769 29 43.0006 29C42.6622 29 42.3326 28.8286 42.1442 28.5181C42.0577 28.3784 39.9088 25 34.9996 25C30.09 25 27.9415 28.3784 27.8522 28.5225C27.6627 28.8281 27.3346 28.9976 26.9987 28.9976C26.8209 28.9976 26.6412 28.9502 26.4786 28.8506C26.0094 28.563 25.859 27.9526 26.1442 27.4819C26.255 27.2988 28.9293 23 34.9996 23C41.0695 23 43.7438 27.2988 43.8551 27.4819C44.1412 27.9541 43.9904 28.5688 43.5177 28.8555Z" fill="black"/>
<path d="M57.184 26.16C56.2773 26.16 55.44 26.048 54.672 25.824C53.9147 25.5893 53.264 25.2693 52.72 24.864L53.36 23.248C53.7227 23.504 54.1013 23.7227 54.496 23.904C54.8907 24.0747 55.312 24.208 55.76 24.304C56.208 24.3893 56.6827 24.432 57.184 24.432C58.0267 24.432 58.6347 24.2933 59.008 24.016C59.3813 23.7387 59.568 23.376 59.568 22.928C59.568 22.5333 59.44 22.2347 59.184 22.032C58.928 21.8187 58.4693 21.6427 57.808 21.504L56 21.136C54.9653 20.9227 54.192 20.5653 53.68 20.064C53.168 19.5627 52.912 18.8907 52.912 18.048C52.912 17.344 53.0987 16.7307 53.472 16.208C53.8453 15.6853 54.368 15.28 55.04 14.992C55.712 14.704 56.496 14.56 57.392 14.56C58.192 14.56 58.9333 14.6773 59.616 14.912C60.2987 15.136 60.8693 15.4613 61.328 15.888L60.688 17.424C60.2293 17.04 59.728 16.7573 59.184 16.576C58.64 16.384 58.032 16.288 57.36 16.288C56.6027 16.288 56.0107 16.4373 55.584 16.736C55.168 17.024 54.96 17.424 54.96 17.936C54.96 18.3307 55.088 18.6453 55.344 18.88C55.6107 19.1147 56.0587 19.296 56.688 19.424L58.48 19.776C59.5467 19.9893 60.336 20.3413 60.848 20.832C61.36 21.312 61.616 21.9627 61.616 22.784C61.616 23.456 61.4347 24.048 61.072 24.56C60.7093 25.0613 60.1973 25.456 59.536 25.744C58.8747 26.0213 58.0907 26.16 57.184 26.16ZM62.9205 26V17.92H64.9205V26H62.9205ZM62.8085 16.4V14.448H65.0325V16.4H62.8085ZM70.3564 29.584C69.6097 29.584 68.9324 29.504 68.3244 29.344C67.727 29.184 67.1937 28.9387 66.7244 28.608L67.1564 27.168C67.4657 27.3707 67.7857 27.536 68.1164 27.664C68.447 27.792 68.7884 27.888 69.1404 27.952C69.4924 28.016 69.8497 28.048 70.2124 28.048C70.959 28.048 71.5137 27.8613 71.8764 27.488C72.2497 27.1253 72.4364 26.6027 72.4364 25.92V23.984H72.5964C72.4257 24.5387 72.079 24.9813 71.5564 25.312C71.0444 25.6427 70.4524 25.808 69.7804 25.808C69.055 25.808 68.4204 25.648 67.8764 25.328C67.343 24.9973 66.927 24.528 66.6284 23.92C66.3297 23.312 66.1804 22.5973 66.1804 21.776C66.1804 20.9547 66.3297 20.2453 66.6284 19.648C66.927 19.04 67.343 18.576 67.8764 18.256C68.4204 17.9253 69.055 17.76 69.7804 17.76C70.463 17.76 71.055 17.9253 71.5564 18.256C72.0684 18.576 72.4097 19.0133 72.5804 19.568L72.4364 19.472L72.5964 17.92H74.5324C74.4897 18.2507 74.4577 18.5867 74.4364 18.928C74.415 19.2693 74.4044 19.6053 74.4044 19.936V25.68C74.4044 26.9493 74.0577 27.9147 73.3644 28.576C72.6817 29.248 71.679 29.584 70.3564 29.584ZM70.3244 24.272C70.9644 24.272 71.471 24.0587 71.8444 23.632C72.2284 23.1947 72.4204 22.576 72.4204 21.776C72.4204 20.976 72.2284 20.3627 71.8444 19.936C71.471 19.5093 70.9644 19.296 70.3244 19.296C69.6737 19.296 69.1564 19.5093 68.7724 19.936C68.3884 20.3627 68.1964 20.976 68.1964 21.776C68.1964 22.576 68.3884 23.1947 68.7724 23.632C69.1564 24.0587 69.6737 24.272 70.3244 24.272ZM76.0855 26V19.936C76.0855 19.6053 76.0748 19.2693 76.0535 18.928C76.0322 18.5867 76.0002 18.2507 75.9575 17.92H77.8935L78.0535 19.52H77.8615C78.1175 18.9547 78.4962 18.5227 78.9975 18.224C79.4988 17.9147 80.0802 17.76 80.7415 17.76C81.6908 17.76 82.4055 18.0267 82.8855 18.56C83.3655 19.0933 83.6055 19.9253 83.6055 21.056V26H81.6055V21.152C81.6055 20.5013 81.4775 20.0373 81.2215 19.76C80.9762 19.472 80.6028 19.328 80.1015 19.328C79.4828 19.328 78.9922 19.52 78.6295 19.904C78.2668 20.288 78.0855 20.8 78.0855 21.44V26H76.0855ZM94.0207 26.16C92.9541 26.16 92.0634 25.984 91.3487 25.632C90.6447 25.2693 90.1167 24.7307 89.7647 24.016C89.4234 23.3013 89.2527 22.4213 89.2527 21.376V14.72H91.3167V21.36C91.3167 22.3627 91.5301 23.12 91.9567 23.632C92.3941 24.144 93.0821 24.4 94.0207 24.4C94.9167 24.4 95.5887 24.144 96.0367 23.632C96.4954 23.12 96.7247 22.3627 96.7247 21.36V14.72H98.7567V21.376C98.7567 22.4213 98.5807 23.3013 98.2287 24.016C97.8767 24.7307 97.3487 25.2693 96.6447 25.632C95.9407 25.984 95.0661 26.16 94.0207 26.16ZM100.52 29.456V19.936C100.52 19.6053 100.51 19.2693 100.488 18.928C100.467 18.5867 100.435 18.2507 100.392 17.92H102.328L102.504 19.616H102.328C102.488 19.0507 102.824 18.6027 103.336 18.272C103.859 17.9307 104.462 17.76 105.144 17.76C105.859 17.76 106.483 17.9307 107.016 18.272C107.55 18.6027 107.966 19.0827 108.264 19.712C108.563 20.3307 108.712 21.0773 108.712 21.952C108.712 22.8267 108.563 23.5787 108.264 24.208C107.966 24.8373 107.55 25.3227 107.016 25.664C106.483 25.9947 105.859 26.16 105.144 26.16C104.472 26.16 103.88 25.9947 103.368 25.664C102.856 25.3333 102.515 24.8907 102.344 24.336H102.52V29.456H100.52ZM104.584 24.624C105.224 24.624 105.736 24.4053 106.12 23.968C106.504 23.52 106.696 22.848 106.696 21.952C106.696 21.056 106.504 20.3893 106.12 19.952C105.736 19.5147 105.224 19.296 104.584 19.296C103.955 19.296 103.448 19.5147 103.064 19.952C102.68 20.3893 102.488 21.056 102.488 21.952C102.488 22.848 102.68 23.52 103.064 23.968C103.448 24.4053 103.955 24.624 104.584 24.624Z" fill="black"/>
</g>
<defs>
<filter id="filter0_dii_4106_2" x="-0.000244141" y="0" width="136" height="60" filterUnits="userSpaceOnUse" color-interpolation-filters="sRGB">
<feFlood flood-opacity="0" result="BackgroundImageFix"/>
<feColorMatrix in="SourceAlpha" type="matrix" values="0 0 0 0 0 0 0 0 0 0 0 0 0 0 0 0 0 0 127 0" result="hardAlpha"/>
<feOffset dy="10"/>
<feGaussianBlur stdDeviation="5"/>
<feComposite in2="hardAlpha" operator="out"/>
<feColorMatrix type="matrix" values="0 0 0 0 0.0250694 0 0 0 0 0.0250694 0 0 0 0 0.158333 0 0 0 0.5 0"/>
<feBlend mode="normal" in2="BackgroundImageFix" result="effect1_dropShadow_4106_2"/>
<feBlend mode="normal" in="SourceGraphic" in2="effect1_dropShadow_4106_2" result="shape"/>
<feColorMatrix in="SourceAlpha" type="matrix" values="0 0 0 0 0 0 0 0 0 0 0 0 0 0 0 0 0 0 127 0" result="hardAlpha"/>
<feOffset dy="1"/>
<feComposite in2="hardAlpha" operator="arithmetic" k2="-1" k3="1"/>
<feColorMatrix type="matrix" values="0 0 0 0 1 0 0 0 0 1 0 0 0 0 1 0 0 0 0.6 0"/>
<feBlend mode="normal" in2="shape" result="effect2_innerShadow_4106_2"/>
<feColorMatrix in="SourceAlpha" type="matrix" values="0 0 0 0 0 0 0 0 0 0 0 0 0 0 0 0 0 0 127 0" result="hardAlpha"/>
<feOffset dy="-3"/>
<feComposite in2="hardAlpha" operator="arithmetic" k2="-1" k3="1"/>
<feColorMatrix type="matrix" values="0 0 0 0 0.895833 0 0 0 0 0.543472 0 0 0 0 0.0149305 0 0 0 1 0"/>
<feBlend mode="normal" in2="effect2_innerShadow_4106_2" result="effect3_innerShadow_4106_2"/>
</filter>
<linearGradient id="paint0_linear_4106_2" x1="37.6248" y1="-9.16108e-08" x2="37.6248" y2="40" gradientUnits="userSpaceOnUse">
<stop stop-color="white" stop-opacity="0.6"/>
<stop offset="1" stop-color="white" stop-opacity="0"/>
</linearGradient>
<linearGradient id="paint1_linear_4106_2" x1="37.6248" y1="-9.16108e-08" x2="37.6248" y2="40" gradientUnits="userSpaceOnUse">
<stop stop-color="white" stop-opacity="0.6"/>
<stop offset="1" stop-color="white" stop-opacity="0"/>
</linearGradient>
</defs>
</svg>
