<svg width="60" height="60" viewBox="0 0 60 60" fill="none" xmlns="http://www.w3.org/2000/svg">
<g filter="url(#filter0_dii_4068_170)">
<rect x="10" width="40" height="40" rx="4" fill="#03031F" fill-opacity="0.6" shape-rendering="crispEdges"/>
<path d="M10 0H34L19 40H10V0Z" fill="url(#paint0_linear_4068_170)"/>
<path d="M35.9198 13.0926L21.7469 18.7955C20.7796 19.2004 20.7854 19.7632 21.5706 20.0142L25.1054 21.1652L26.4578 25.4911C26.6223 25.9646 26.5412 26.1524 27.0178 26.1524C27.3856 26.1524 27.5487 25.9775 27.7536 25.7687C27.8838 25.6357 28.6573 24.8512 29.5209 23.9753L33.1977 26.8094C33.8742 27.1988 34.3628 26.997 34.5312 26.1538L36.9448 14.2884C37.1919 13.2549 36.5671 12.7861 35.9198 13.0926ZM25.6601 20.9008L33.6274 15.6567C34.0252 15.4051 34.3899 15.5404 34.0904 15.8177L27.2683 22.2392L27.0027 25.1949L25.6601 20.9008Z" fill="white"/>
<rect x="10.5" y="0.5" width="39" height="39" rx="3.5" stroke="#B8B8E3" stroke-opacity="0.08" shape-rendering="crispEdges"/>
</g>
<defs>
<filter id="filter0_dii_4068_170" x="0" y="0" width="60" height="60" filterUnits="userSpaceOnUse" color-interpolation-filters="sRGB">
<feFlood flood-opacity="0" result="BackgroundImageFix"/>
<feColorMatrix in="SourceAlpha" type="matrix" values="0 0 0 0 0 0 0 0 0 0 0 0 0 0 0 0 0 0 127 0" result="hardAlpha"/>
<feOffset dy="10"/>
<feGaussianBlur stdDeviation="5"/>
<feComposite in2="hardAlpha" operator="out"/>
<feColorMatrix type="matrix" values="0 0 0 0 0.0250694 0 0 0 0 0.0250694 0 0 0 0 0.158333 0 0 0 0.55 0"/>
<feBlend mode="normal" in2="BackgroundImageFix" result="effect1_dropShadow_4068_170"/>
<feBlend mode="normal" in="SourceGraphic" in2="effect1_dropShadow_4068_170" result="shape"/>
<feColorMatrix in="SourceAlpha" type="matrix" values="0 0 0 0 0 0 0 0 0 0 0 0 0 0 0 0 0 0 127 0" result="hardAlpha"/>
<feOffset dy="1"/>
<feComposite in2="hardAlpha" operator="arithmetic" k2="-1" k3="1"/>
<feColorMatrix type="matrix" values="0 0 0 0 0.742778 0 0 0 0 0.742778 0 0 0 0 0.933333 0 0 0 0.15 0"/>
<feBlend mode="normal" in2="shape" result="effect2_innerShadow_4068_170"/>
<feColorMatrix in="SourceAlpha" type="matrix" values="0 0 0 0 0 0 0 0 0 0 0 0 0 0 0 0 0 0 127 0" result="hardAlpha"/>
<feOffset dy="-8"/>
<feComposite in2="hardAlpha" operator="arithmetic" k2="-1" k3="1"/>
<feColorMatrix type="matrix" values="0 0 0 0 0.0212674 0 0 0 0 0.0212674 0 0 0 0 0.104167 0 0 0 0.4 0"/>
<feBlend mode="normal" in2="effect2_innerShadow_4068_170" result="effect3_innerShadow_4068_170"/>
</filter>
<linearGradient id="paint0_linear_4068_170" x1="17.9024" y1="-9.16107e-08" x2="17.9024" y2="40" gradientUnits="userSpaceOnUse">
<stop stop-color="#B8B8E3" stop-opacity="0.1"/>
<stop offset="1" stop-color="white" stop-opacity="0"/>
</linearGradient>
</defs>
</svg>
