<svg width="60" height="60" viewBox="0 0 60 60" fill="none" xmlns="http://www.w3.org/2000/svg">
<g filter="url(#filter0_dii_4068_175)">
<rect x="10" width="40" height="40" rx="4" fill="#03031F" fill-opacity="0.6" shape-rendering="crispEdges"/>
<path d="M10 0H34L19 40H10V0Z" fill="url(#paint0_linear_4068_175)"/>
<path d="M36 14H24C22.8954 14 22 14.8954 22 16V24C22 25.1046 22.8954 26 24 26H36C37.1046 26 38 25.1046 38 24V16C38 14.8954 37.1046 14 36 14ZM30 24L23 16L30 21.4095L37 16L30 24Z" fill="white"/>
<rect x="10.5" y="0.5" width="39" height="39" rx="3.5" stroke="#B8B8E3" stroke-opacity="0.08" shape-rendering="crispEdges"/>
</g>
<defs>
<filter id="filter0_dii_4068_175" x="0" y="0" width="60" height="60" filterUnits="userSpaceOnUse" color-interpolation-filters="sRGB">
<feFlood flood-opacity="0" result="BackgroundImageFix"/>
<feColorMatrix in="SourceAlpha" type="matrix" values="0 0 0 0 0 0 0 0 0 0 0 0 0 0 0 0 0 0 127 0" result="hardAlpha"/>
<feOffset dy="10"/>
<feGaussianBlur stdDeviation="5"/>
<feComposite in2="hardAlpha" operator="out"/>
<feColorMatrix type="matrix" values="0 0 0 0 0.0250694 0 0 0 0 0.0250694 0 0 0 0 0.158333 0 0 0 0.55 0"/>
<feBlend mode="normal" in2="BackgroundImageFix" result="effect1_dropShadow_4068_175"/>
<feBlend mode="normal" in="SourceGraphic" in2="effect1_dropShadow_4068_175" result="shape"/>
<feColorMatrix in="SourceAlpha" type="matrix" values="0 0 0 0 0 0 0 0 0 0 0 0 0 0 0 0 0 0 127 0" result="hardAlpha"/>
<feOffset dy="1"/>
<feComposite in2="hardAlpha" operator="arithmetic" k2="-1" k3="1"/>
<feColorMatrix type="matrix" values="0 0 0 0 0.742778 0 0 0 0 0.742778 0 0 0 0 0.933333 0 0 0 0.15 0"/>
<feBlend mode="normal" in2="shape" result="effect2_innerShadow_4068_175"/>
<feColorMatrix in="SourceAlpha" type="matrix" values="0 0 0 0 0 0 0 0 0 0 0 0 0 0 0 0 0 0 127 0" result="hardAlpha"/>
<feOffset dy="-8"/>
<feComposite in2="hardAlpha" operator="arithmetic" k2="-1" k3="1"/>
<feColorMatrix type="matrix" values="0 0 0 0 0.0212674 0 0 0 0 0.0212674 0 0 0 0 0.104167 0 0 0 0.4 0"/>
<feBlend mode="normal" in2="effect2_innerShadow_4068_175" result="effect3_innerShadow_4068_175"/>
</filter>
<linearGradient id="paint0_linear_4068_175" x1="17.9024" y1="-9.16107e-08" x2="17.9024" y2="40" gradientUnits="userSpaceOnUse">
<stop stop-color="#B8B8E3" stop-opacity="0.1"/>
<stop offset="1" stop-color="white" stop-opacity="0"/>
</linearGradient>
</defs>
</svg>
