<svg width="40" height="40" viewBox="0 0 40 40" fill="none" xmlns="http://www.w3.org/2000/svg">
<path d="M13.5885 25V15.835H17.3195C18.2815 15.835 19.0225 16.069 19.5425 16.537C20.0625 16.9963 20.3225 17.6377 20.3225 18.461C20.3225 18.9983 20.2055 19.4663 19.9715 19.865C19.7375 20.255 19.3952 20.5583 18.9445 20.775C18.4938 20.983 17.9522 21.087 17.3195 21.087H14.6675V25H13.5885ZM14.6675 20.19H17.2155C17.8828 20.19 18.3855 20.0383 18.7235 19.735C19.0702 19.4317 19.2435 19.007 19.2435 18.461C19.2435 17.9063 19.0702 17.4773 18.7235 17.174C18.3855 16.8707 17.8828 16.719 17.2155 16.719H14.6675V20.19ZM21.3543 27.951L21.1073 27.08C21.5146 26.9847 21.8526 26.872 22.1213 26.742C22.3986 26.6207 22.6283 26.456 22.8103 26.248C22.9923 26.04 23.1483 25.78 23.2783 25.468L23.6163 24.701L23.5903 25.143L20.7433 18.474H21.8873L24.2403 24.207H23.9023L26.2293 18.474H27.3343L24.3183 25.546C24.145 25.962 23.9543 26.3087 23.7463 26.586C23.5383 26.872 23.313 27.1017 23.0703 27.275C22.8363 27.457 22.5763 27.6 22.2903 27.704C22.0043 27.808 21.6923 27.8903 21.3543 27.951Z" fill="white"/>
</svg>
