<svg width="172" height="46" viewBox="0 0 172 46" fill="none" xmlns="http://www.w3.org/2000/svg">
<path d="M34.8604 14L23.9672 38H18.8946L8 14H12.7571C13.1512 15.1223 13.5629 16.1889 14.0482 17.1273L12.393 17.7863L13.8707 19.3898L15.112 20.7368L13.681 21.7971L15.3073 23.0023L17.1531 24.3701L16.9821 24.6713L16.5613 25.4121L16.9821 26.153L20.1559 31.7408L21.4602 34.0372L22.7645 31.7408L25.9384 26.153L26.3591 25.4121L25.9384 24.6713L25.7673 24.3702L27.6132 23.0023L29.2393 21.7971L27.8084 20.7367L29.0497 19.3897L30.5274 17.7862L28.8221 17.1072C29.303 16.1738 29.7117 15.1143 30.103 14H34.8604ZM39.8937 18L47.4288 34H43.2305L41.8812 31H34.554L33.1982 34H29L36.4892 18H39.8937ZM40.082 27L38.2828 23H38.1694L36.3617 27H40.082ZM75.0224 21.7737C75.6744 22.9709 76 24.3746 76 25.9894C76 27.5876 75.6744 28.9897 75.0224 30.1915C74.3712 31.3947 73.4459 32.3309 72.2474 32.9973C71.0488 33.6653 69.6254 34 67.9773 34C66.3445 34 64.9328 33.6653 63.7411 32.9973C62.5503 32.3309 61.6288 31.3947 60.9776 30.1915C60.3256 28.9897 60 27.5876 60 25.9894C60 24.3746 60.3218 22.9709 60.9661 21.7737C61.6104 20.5782 62.5318 19.6509 63.7303 18.9905C64.929 18.3302 66.3445 18 67.9773 18C69.6254 18 71.0488 18.3302 72.2474 18.9905C73.4459 19.6509 74.3712 20.5782 75.0224 21.7737ZM72 25.9908C72 25.1498 71.853 24.4317 71.5578 23.8326C71.2636 23.2348 70.8181 22.7796 70.2205 22.467C69.6237 22.1556 68.8746 22 67.9752 22C66.6337 22 65.6358 22.3466 64.9818 23.0399C64.327 23.7344 64 24.7181 64 25.9908C64 26.8306 64.147 27.55 64.4413 28.1478C64.7364 28.7456 65.1735 29.2047 65.7543 29.5226C66.3353 29.8404 67.0757 30 67.9752 30C69.3168 30 70.3229 29.6469 70.9938 28.9404C71.6646 28.2341 72 27.2505 72 25.9908ZM53 30V18H49V34H61L58 30H53ZM87.608 28.8883L92 34H87.0641L82.738 29.0164L82 29V34H78V18H85.5576C85.7058 18 85.8341 18.0208 85.9769 18.0264C86.1492 18.0101 86.3234 18 86.5 18C89.5375 18 92 20.4624 92 23.5C92 26.158 90.1144 28.3756 87.608 28.8883ZM88 23.5C88 22.6716 87.3284 22 86.5 22H82V25H86.5C87.3284 25 88 24.3284 88 23.5Z" fill="white"/>
<path d="M33.4302 3.34436C28.4796 6.60742 27.5705 11.8288 25.8181 13.8084C26.5032 10.5179 25.2651 8.75672 27.9466 5.84912C24.7799 7.95764 25.9136 10.8181 24.6577 13.6569L24.3764 13.4923C25.9479 9.06519 21.6782 3.40699 28.2267 0C20.605 2.32953 22.8079 7.44171 21.9972 12.0998L21.4602 11.7855L20.923 12.0998C20.1123 7.44172 22.3153 2.32953 14.6935 7.6e-06C21.242 3.40699 16.9724 9.06519 18.5439 13.4923L18.2138 13.6854C16.9376 10.8372 18.091 7.96473 14.9137 5.84913C17.5952 8.75672 16.3571 10.5179 17.0422 13.8084C15.2898 11.8287 14.3807 6.60743 9.43018 3.34437C12.9466 6.53883 13.6191 14.5004 16.2734 17.8557L14.9737 18.3732L17.3463 20.9479L16.2004 21.7971L19.1134 23.9559L18.2863 25.4121L21.4602 31L24.634 25.4121L23.807 23.9559L26.72 21.7971L25.574 20.9479L27.9466 18.3732L26.6007 17.8374C29.2433 14.4717 29.9199 6.53314 33.4302 3.34436ZM19.0135 21.3366L17.0195 17.5533L20.0462 19.7514L19.0135 21.3366ZM23.9068 21.3365L22.874 19.7514L25.9007 17.5533L23.9068 21.3365Z" fill="#FCB223"/>
<rect x="98" y="18" width="74" height="16" rx="3" fill="#FCB223"/>
<path d="M102.786 29V23.36H105.418C106.053 23.36 106.533 23.5147 106.858 23.824C107.189 24.128 107.354 24.5467 107.354 25.08C107.354 25.4373 107.279 25.7467 107.13 26.008C106.981 26.264 106.762 26.4613 106.474 26.6C106.191 26.7387 105.839 26.808 105.418 26.808H104.034V29H102.786ZM104.034 25.84H105.258C105.557 25.84 105.778 25.7733 105.922 25.64C106.071 25.5067 106.146 25.32 106.146 25.08C106.146 24.84 106.071 24.656 105.922 24.528C105.778 24.3947 105.557 24.328 105.258 24.328H104.034V25.84ZM110.127 29L112.719 23.36H113.751L116.375 29H115.111L114.431 27.432L114.919 27.776H111.567L112.063 27.432L111.383 29H110.127ZM113.231 24.672L112.199 27.12L111.983 26.816H114.503L114.319 27.12L113.263 24.672H113.231ZM120.061 29V23.36H122.621C123.256 23.36 123.746 23.512 124.093 23.816C124.44 24.1147 124.613 24.5333 124.613 25.072C124.613 25.424 124.533 25.728 124.373 25.984C124.218 26.2347 123.994 26.4293 123.701 26.568C123.413 26.7013 123.066 26.768 122.661 26.768L122.757 26.592H123.085C123.314 26.592 123.517 26.6533 123.693 26.776C123.874 26.8987 124.024 27.0773 124.141 27.312L124.981 29H123.605L122.733 27.184C122.669 27.0293 122.568 26.928 122.429 26.88C122.296 26.8267 122.141 26.8 121.965 26.8H121.309V29H120.061ZM121.309 25.904H122.405C122.73 25.904 122.978 25.8373 123.149 25.704C123.32 25.5707 123.405 25.3733 123.405 25.112C123.405 24.8507 123.32 24.656 123.149 24.528C122.978 24.3947 122.73 24.328 122.405 24.328H121.309V25.904ZM130.073 29V24.376H128.281V23.36H133.113V24.376H131.321V29H130.073ZM136.992 29V23.36H137.92L140.984 27.256H140.768V23.36H141.928V29H141L137.944 25.104H138.152V29H136.992ZM146.271 29V23.36H150.191V24.328H147.463V25.648H149.999V26.624H147.463V28.032H150.191V29H146.271ZM154.26 29V23.36H156.82C157.454 23.36 157.945 23.512 158.292 23.816C158.638 24.1147 158.812 24.5333 158.812 25.072C158.812 25.424 158.732 25.728 158.572 25.984C158.417 26.2347 158.193 26.4293 157.9 26.568C157.612 26.7013 157.265 26.768 156.86 26.768L156.956 26.592H157.284C157.513 26.592 157.716 26.6533 157.892 26.776C158.073 26.8987 158.222 27.0773 158.34 27.312L159.18 29H157.804L156.932 27.184C156.868 27.0293 156.766 26.928 156.628 26.88C156.494 26.8267 156.34 26.8 156.164 26.8H155.508V29H154.26ZM155.508 25.904H156.604C156.929 25.904 157.177 25.8373 157.348 25.704C157.518 25.5707 157.604 25.3733 157.604 25.112C157.604 24.8507 157.518 24.656 157.348 24.528C157.177 24.3947 156.929 24.328 156.604 24.328H155.508V25.904ZM165.14 29.088C164.687 29.088 164.263 29.032 163.868 28.92C163.474 28.808 163.138 28.6533 162.86 28.456L163.228 27.48C163.41 27.6027 163.602 27.7067 163.804 27.792C164.007 27.8773 164.22 27.944 164.444 27.992C164.668 28.0347 164.903 28.056 165.148 28.056C165.532 28.056 165.804 27.9973 165.964 27.88C166.13 27.7627 166.212 27.6133 166.212 27.432C166.212 27.2667 166.156 27.1413 166.044 27.056C165.938 26.9653 165.74 26.888 165.452 26.824L164.508 26.632C163.991 26.5253 163.604 26.344 163.348 26.088C163.092 25.832 162.964 25.4907 162.964 25.064C162.964 24.7013 163.06 24.3867 163.252 24.12C163.444 23.8533 163.714 23.6453 164.06 23.496C164.412 23.3467 164.823 23.272 165.292 23.272C165.692 23.272 166.066 23.328 166.412 23.44C166.759 23.552 167.044 23.712 167.268 23.92L166.9 24.832C166.682 24.656 166.436 24.5253 166.164 24.44C165.898 24.3493 165.599 24.304 165.268 24.304C164.922 24.304 164.655 24.3653 164.468 24.488C164.287 24.6107 164.196 24.7787 164.196 24.992C164.196 25.152 164.252 25.2827 164.364 25.384C164.476 25.48 164.674 25.5573 164.956 25.616L165.884 25.8C166.412 25.9067 166.804 26.0853 167.06 26.336C167.316 26.5867 167.444 26.92 167.444 27.336C167.444 27.688 167.348 27.9947 167.156 28.256C166.97 28.5173 166.703 28.7227 166.356 28.872C166.015 29.016 165.61 29.088 165.14 29.088Z" fill="#10102F"/>
</svg>
