<svg width="143" height="163" viewBox="0 0 143 163" fill="none" xmlns="http://www.w3.org/2000/svg">
<g filter="url(#filter0_di_4078_22)">
<path d="M53.2216 19.0229C54.7837 19.5305 56.4652 18.6788 56.9702 17.1245C57.4752 15.5702 56.6155 13.8928 55.0533 13.3853C53.4921 12.878 51.8106 13.7297 51.3056 15.284C50.8006 16.8382 51.6603 18.5156 53.2216 19.0229ZM54.4576 15.2186C54.9935 15.3928 55.2864 15.9767 55.1099 16.52C54.9333 17.0634 54.3532 17.3636 53.8173 17.1895C53.2814 17.0154 52.9894 16.4317 53.1659 15.8884C53.3425 15.3451 53.9217 15.0445 54.4576 15.2186ZM61.8359 21.8218C63.3971 22.3291 65.0785 21.4774 65.5835 19.9231C66.0886 18.3688 65.2289 16.6915 63.6676 16.1842C62.1054 15.6766 60.424 16.5283 59.919 18.0826C59.414 19.6369 60.2737 21.3142 61.8359 21.8218ZM63.0719 18.0176C63.6078 18.1917 63.8998 18.7754 63.7232 19.3187C63.5467 19.862 62.9675 20.1626 62.4316 19.9884C61.8957 19.8143 61.6028 19.2304 61.7793 18.6871C61.9559 18.1437 62.536 17.8435 63.0719 18.0176ZM70.4492 24.6205C72.0114 25.1281 73.6928 24.2764 74.1979 22.7221C74.7029 21.1678 73.8432 19.4905 72.281 18.9829C70.7197 18.4756 69.0383 19.3273 68.5333 20.8816C68.0283 22.4359 68.888 24.1132 70.4492 24.6205ZM71.6853 20.8163C72.2212 20.9904 72.5141 21.5743 72.3375 22.1176C72.161 22.661 71.5808 22.9612 71.0449 22.7871C70.509 22.613 70.2171 22.0294 70.3936 21.486C70.5702 20.9427 71.1494 20.6421 71.6853 20.8163ZM173.717 42.396L46.275 0.98772C44.7017 0.476514 43.006 1.34051 42.4948 2.91384L10.3571 101.824C9.84585 103.397 10.7098 105.093 12.2832 105.604L139.725 147.012C141.298 147.523 142.994 146.659 143.505 145.086L175.643 46.1762C176.154 44.6029 175.29 42.9072 173.717 42.396ZM171.529 45.8912L166.667 60.8549C166.603 60.8259 166.542 60.7915 166.473 60.7691L41.1346 20.0443L45.99 5.10096L171.529 45.8912ZM14.4703 102.109L39.8986 23.8486L165.236 64.5733C165.306 64.5958 165.375 64.6039 165.445 64.6185L140.01 142.899L14.4703 102.109ZM129.678 96.1188C129.393 96.9924 128.732 97.6803 127.909 97.9601L102.552 106.613C102.127 106.759 101.687 106.752 101.29 106.623C100.712 106.435 100.225 105.987 100.014 105.367C99.657 104.321 100.215 103.184 101.261 102.828L125.195 94.6602L110.632 73.9841C109.997 73.0813 110.213 71.8332 111.116 71.1973C112.019 70.5614 113.268 70.7782 113.903 71.6807L129.332 93.5862C129.834 94.2986 129.963 95.2451 129.678 96.1188ZM79.3587 60.0978C79.6683 61.158 79.06 62.2685 78.0003 62.5783L53.7067 69.6733L67.323 90.965C67.918 91.8956 67.6455 93.1327 66.7158 93.7281C66.1909 94.0637 65.5687 94.1234 65.0189 93.9448C64.5935 93.8066 64.2121 93.5266 63.9527 93.1209L49.5264 70.5617C49.0589 69.8296 48.9714 68.8791 49.2937 68.0197C49.6161 67.1602 50.3069 66.5006 51.141 66.2562L76.8779 58.7389C77.94 58.4283 79.0497 59.0389 79.3587 60.0978ZM106.416 64.5285L76.3127 101.523C75.7757 102.184 74.9057 102.412 74.1431 102.165C73.9147 102.09 73.6961 101.973 73.4997 101.813C72.6429 101.116 72.5129 99.8565 73.2102 98.9998L103.314 62.004C104.012 61.1472 105.277 61.0207 106.127 61.715C106.984 62.4118 107.114 63.6718 106.416 64.5285Z" fill="url(#paint0_linear_4078_22)" shape-rendering="crispEdges"/>
</g>
<defs>
<filter id="filter0_di_4078_22" x="0.209961" y="0.840576" width="185.58" height="166.319" filterUnits="userSpaceOnUse" color-interpolation-filters="sRGB">
<feFlood flood-opacity="0" result="BackgroundImageFix"/>
<feColorMatrix in="SourceAlpha" type="matrix" values="0 0 0 0 0 0 0 0 0 0 0 0 0 0 0 0 0 0 127 0" result="hardAlpha"/>
<feOffset dy="10"/>
<feGaussianBlur stdDeviation="5"/>
<feComposite in2="hardAlpha" operator="out"/>
<feColorMatrix type="matrix" values="0 0 0 0 0.0250694 0 0 0 0 0.0250694 0 0 0 0 0.158333 0 0 0 0.55 0"/>
<feBlend mode="normal" in2="BackgroundImageFix" result="effect1_dropShadow_4078_22"/>
<feBlend mode="normal" in="SourceGraphic" in2="effect1_dropShadow_4078_22" result="shape"/>
<feColorMatrix in="SourceAlpha" type="matrix" values="0 0 0 0 0 0 0 0 0 0 0 0 0 0 0 0 0 0 127 0" result="hardAlpha"/>
<feOffset dy="1"/>
<feComposite in2="hardAlpha" operator="arithmetic" k2="-1" k3="1"/>
<feColorMatrix type="matrix" values="0 0 0 0 0.861944 0 0 0 0 0.861944 0 0 0 0 0.966667 0 0 0 0.25 0"/>
<feBlend mode="normal" in2="shape" result="effect2_innerShadow_4078_22"/>
</filter>
<linearGradient id="paint0_linear_4078_22" x1="84.557" y1="13.4263" x2="50.5651" y2="118.042" gradientUnits="userSpaceOnUse">
<stop stop-color="#D5D5EE" stop-opacity="0.2"/>
<stop offset="1" stop-color="white" stop-opacity="0.02"/>
</linearGradient>
</defs>
</svg>
