<svg width="143" height="153" viewBox="0 0 143 153" fill="none" xmlns="http://www.w3.org/2000/svg">
<g filter="url(#filter0_di_4078_28)">
<path d="M171.218 75.6824C180.565 46.9167 161.156 15.6988 127.033 4.61164C96.2564 -5.38837 63.8794 4.6407 51.1271 27.9284C33.6041 29.5133 18.9163 39.5928 13.763 55.453C10.2364 66.3066 11.5376 75.9635 17.746 84.9539C17.1217 91.5239 13.9933 97.268 11.432 100.979C10.3247 102.583 10.2106 104.641 11.1352 106.352C11.7767 107.538 12.8311 108.398 14.0673 108.8C14.6171 108.978 15.2033 109.067 15.8048 109.052L41.6289 108.421C43.8865 109.49 45.9609 110.384 48.5178 111.215C64.8358 116.517 81.4639 114.53 93.6153 107.175C97.0152 108.261 100.005 108.904 102.728 109.413L131.121 131.087C131.599 131.452 132.125 131.726 132.675 131.904C133.913 132.307 135.275 132.231 136.492 131.649C138.234 130.816 139.348 129.099 139.4 127.168C139.573 120.757 140.713 111.468 145.103 103.187C158.232 98.8348 166.542 90.0746 171.218 75.6824ZM49.7538 107.411C47.2424 106.595 45.2067 105.699 42.9208 104.606C42.7737 104.536 42.6192 104.486 42.4611 104.453C41.643 104.001 34.348 99.8843 29.7306 94.6032C29.0038 93.7715 27.7407 93.6866 26.909 94.4134C26.0773 95.1402 25.992 96.4043 26.7191 97.235C29.2731 100.157 32.4735 102.694 35.1672 104.578L15.7068 105.053C15.0615 105.07 14.7556 104.637 14.6541 104.45C14.5541 104.264 14.3602 103.777 14.7228 103.252C17.6519 99.0092 21.2506 92.3326 21.7882 84.5946C21.8362 84.1152 21.7096 83.6295 21.4236 83.2296C15.6427 75.1739 14.382 66.4922 17.5672 56.6891C24.2026 36.2674 48.5915 26.5059 73.0914 34.4664C98 42.5597 112.956 65.4808 106.431 85.5626C99.9057 105.644 74.4804 115.445 49.7538 107.411ZM135.402 127.06C135.385 127.679 134.952 127.952 134.766 128.04C134.573 128.133 134.068 128.304 133.548 127.908L110.34 110.192C114.768 110.362 120.785 110.25 126.291 108.994C127.368 108.748 128.041 107.677 127.796 106.6C127.551 105.523 126.479 104.846 125.401 105.095C116.367 107.154 105.369 105.846 104.405 105.724C104.252 105.652 104.091 105.597 103.923 105.567C102.05 105.222 100.038 104.809 97.8705 104.242C103.597 99.735 107.949 93.8342 110.235 86.7986C117.441 64.6197 101.333 39.4368 74.3275 30.6621C68.097 28.6377 61.8716 27.6958 55.8909 27.7096C68.5144 7.62521 97.8047 -0.679465 125.797 8.41586C157.787 18.8099 176.067 47.814 167.414 74.4464C163.022 87.9646 155.531 95.7291 143.127 99.6218C142.627 99.7785 142.212 100.127 141.966 100.581C136.885 109.733 135.591 120.031 135.402 127.06ZM43.1174 58.2919C39.0345 56.9653 34.6377 59.1962 33.3156 63.2652C31.9936 67.3341 34.2393 71.7234 38.3222 73.05C42.405 74.3766 46.8027 72.1459 48.1248 68.077C49.4469 64.008 47.2002 59.6185 43.1174 58.2919ZM39.5582 69.2457C37.5735 68.6008 36.4795 66.4721 37.1199 64.5012C37.7602 62.5304 39.8965 61.4512 41.8813 62.0961C43.867 62.7413 44.961 64.87 44.3206 66.8409C43.6802 68.8117 41.5439 69.8909 39.5582 69.2457ZM64.6861 65.3C60.6032 63.9734 56.2064 66.2043 54.8844 70.2733C53.5623 74.3422 55.808 78.7315 59.8909 80.0581C63.9738 81.3847 68.3715 79.154 69.6935 75.0851C71.0156 71.0161 68.769 66.6266 64.6861 65.3ZM61.127 76.2538C59.1422 75.6089 58.0482 73.4802 58.6886 71.5093C59.329 69.5385 61.4653 68.4593 63.45 69.1042C65.4357 69.7494 66.5297 71.8782 65.8893 73.849C65.249 75.8198 63.1127 76.899 61.127 76.2538ZM86.2558 72.3084C82.1729 70.9818 77.7752 73.2125 76.4531 77.2814C75.131 81.3503 77.3777 85.7399 81.4606 87.0665C85.5434 88.3931 89.9402 86.1621 91.2623 82.0932C92.5844 78.0242 90.3386 73.635 86.2558 72.3084ZM82.6966 83.2622C80.7109 82.6171 79.617 80.4883 80.2573 78.5174C80.8977 76.5466 83.034 75.4674 85.0197 76.1126C87.0045 76.7575 88.0984 78.8863 87.4581 80.8571C86.8177 82.8279 84.6814 83.9071 82.6966 83.2622ZM120.495 48.7476C116.413 47.421 112.016 49.652 110.694 53.7209C109.372 57.7898 111.617 62.1791 115.7 63.5057C119.783 64.8323 124.181 62.6016 125.503 58.5327C126.825 54.4638 124.578 50.0742 120.495 48.7476ZM116.936 59.7015C114.952 59.0566 113.858 56.9278 114.498 54.957C115.138 52.9861 117.275 51.9069 119.259 52.5518C121.245 53.197 122.339 55.3258 121.699 57.2966C121.058 59.2675 118.922 60.3467 116.936 59.7015ZM142.064 55.7557C137.981 54.4291 133.585 56.6601 132.262 60.729C130.94 64.7979 133.186 69.1872 137.269 70.5138C141.352 71.8404 145.75 69.6097 147.072 65.5408C148.394 61.4719 146.147 57.0823 142.064 55.7557ZM138.505 66.7096C136.52 66.0647 135.426 63.9359 136.067 61.9651C136.707 59.9942 138.843 58.915 140.828 59.5599C142.814 60.2051 143.908 62.3339 143.267 64.3047C142.627 66.2756 140.491 67.3548 138.505 66.7096Z" fill="url(#paint0_linear_4078_28)" shape-rendering="crispEdges"/>
</g>
<defs>
<filter id="filter0_di_4078_28" x="0.513916" y="0.754517" width="183.047" height="151.402" filterUnits="userSpaceOnUse" color-interpolation-filters="sRGB">
<feFlood flood-opacity="0" result="BackgroundImageFix"/>
<feColorMatrix in="SourceAlpha" type="matrix" values="0 0 0 0 0 0 0 0 0 0 0 0 0 0 0 0 0 0 127 0" result="hardAlpha"/>
<feOffset dy="10"/>
<feGaussianBlur stdDeviation="5"/>
<feComposite in2="hardAlpha" operator="out"/>
<feColorMatrix type="matrix" values="0 0 0 0 0.0250694 0 0 0 0 0.0250694 0 0 0 0 0.158333 0 0 0 0.55 0"/>
<feBlend mode="normal" in2="BackgroundImageFix" result="effect1_dropShadow_4078_28"/>
<feBlend mode="normal" in="SourceGraphic" in2="effect1_dropShadow_4078_28" result="shape"/>
<feColorMatrix in="SourceAlpha" type="matrix" values="0 0 0 0 0 0 0 0 0 0 0 0 0 0 0 0 0 0 127 0" result="hardAlpha"/>
<feOffset dy="1"/>
<feComposite in2="hardAlpha" operator="arithmetic" k2="-1" k3="1"/>
<feColorMatrix type="matrix" values="0 0 0 0 0.861944 0 0 0 0 0.861944 0 0 0 0 0.966667 0 0 0 0.25 0"/>
<feBlend mode="normal" in2="shape" result="effect2_innerShadow_4078_28"/>
</filter>
<linearGradient id="paint0_linear_4078_28" x1="85.3575" y1="-8.92964" x2="43.9501" y2="118.509" gradientUnits="userSpaceOnUse">
<stop stop-color="#D5D5EE" stop-opacity="0.2"/>
<stop offset="1" stop-color="white" stop-opacity="0.02"/>
</linearGradient>
</defs>
</svg>
