<svg width="139" height="160" viewBox="0 0 139 160" fill="none" xmlns="http://www.w3.org/2000/svg">
<g filter="url(#filter0_di_4078_24)">
<path d="M54.4485 106.651C55.1028 107.366 55.0534 108.472 54.3376 109.123C53.8547 109.562 53.1917 109.681 52.6106 109.492C52.3308 109.401 52.0697 109.239 51.8571 109.007C51.2439 108.337 50.6382 107.635 50.0573 106.921C49.4456 106.17 49.5601 105.068 50.3122 104.46C51.0655 103.851 52.1702 103.966 52.7824 104.72C53.3206 105.381 53.8808 106.031 54.4485 106.651ZM119.489 47.0674C119.701 47.2942 119.958 47.4533 120.234 47.543C120.82 47.7333 121.488 47.6107 121.97 47.1658C122.682 46.5094 122.723 45.4029 122.064 44.6919C121.438 44.0187 120.788 43.3578 120.134 42.7285C119.435 42.0549 118.324 42.0748 117.652 42.7698C116.979 43.4648 117.001 44.5729 117.699 45.2445C118.306 45.8279 118.908 46.4412 119.489 47.0674ZM114.497 42.4517C114.667 42.5857 114.852 42.6838 115.046 42.7468C115.724 42.967 116.496 42.7597 116.964 42.1717C117.566 41.416 117.438 40.3147 116.678 39.7129C115.963 39.1473 115.218 38.5919 114.463 38.0635C113.668 37.5089 112.574 37.6977 112.018 38.488C111.462 39.2792 111.655 40.3704 112.449 40.9268C113.148 41.4159 113.837 41.929 114.497 42.4517ZM108.854 38.6592C108.959 38.7185 109.068 38.7655 109.179 38.8014C109.956 39.0541 110.829 38.7368 111.247 38.0012C111.723 37.1608 111.425 36.0922 110.581 35.6149C109.785 35.1649 108.966 34.7325 108.146 34.3295C107.274 33.9055 106.223 34.2565 105.796 35.1236C105.369 35.9907 105.728 37.0398 106.598 37.4681C107.358 37.8415 108.117 38.2418 108.854 38.6592ZM57.4637 109.644C56.7451 108.995 55.6338 109.049 54.9842 109.765C54.3346 110.482 54.3922 111.588 55.1124 112.237C55.7919 112.85 56.4989 113.451 57.2128 114.023C57.3842 114.161 57.5732 114.262 57.7702 114.326C58.4439 114.545 59.2115 114.341 59.6811 113.759C60.2876 113.007 60.1668 111.905 59.4101 111.299C58.7489 110.768 58.094 110.211 57.4637 109.644ZM77.6745 120.012C76.8525 119.83 76.0196 119.621 75.1984 119.391C74.2648 119.128 73.2961 119.67 73.0349 120.6C72.7807 121.508 73.2927 122.449 74.1842 122.739C74.207 122.746 74.2301 122.753 74.2536 122.76C75.1385 123.009 76.0369 123.234 76.924 123.429C77.8714 123.638 78.8072 123.042 79.0144 122.098C79.2218 121.154 78.6201 120.215 77.6745 120.012ZM84.4063 120.961C83.5702 120.908 82.7147 120.829 81.8638 120.727C80.901 120.611 80.028 121.295 79.9142 122.255C79.814 123.099 80.3341 123.874 81.1154 124.128C81.2227 124.163 81.3351 124.188 81.4516 124.202C82.368 124.312 83.29 124.397 84.1922 124.454C85.1595 124.516 85.9922 123.783 86.0517 122.819C86.111 121.854 85.3746 121.024 84.4063 120.961ZM68.8062 117.065C67.9277 116.661 66.8827 117.054 66.4835 117.933C66.0844 118.813 66.4766 119.851 67.3608 120.251C68.1881 120.625 69.0426 120.983 69.9004 121.314C69.9305 121.325 69.9608 121.336 69.9914 121.346C70.8723 121.632 71.8329 121.184 72.169 120.314C72.5171 119.412 72.0655 118.398 71.1604 118.049C70.3651 117.743 69.5727 117.412 68.8062 117.065ZM62.8498 113.793C62.0393 113.263 60.9503 113.487 60.4197 114.295C59.8895 115.102 60.1171 116.188 60.9289 116.718C61.6905 117.216 62.4802 117.701 63.2759 118.158C63.3846 118.22 63.4971 118.269 63.6113 118.307C64.3842 118.558 65.2523 118.246 65.6732 117.517C66.1556 116.68 65.8654 115.61 65.0247 115.126C64.2869 114.702 63.5553 114.254 62.8498 113.793ZM68.1394 33.2544C67.2995 33.6147 66.4604 34.0031 65.6459 34.4094C64.7793 34.841 64.4295 35.8923 64.8651 36.7569C65.0845 37.1929 65.4618 37.4987 65.8932 37.6389C66.317 37.7765 66.7924 37.755 67.2219 37.5406C67.9771 37.1644 68.7549 36.8037 69.5337 36.4702C70.4237 36.0885 70.833 35.0592 70.4478 34.1715C70.0629 33.2829 69.0297 32.8718 68.1394 33.2544ZM78.108 31.9628C78.216 32.6348 78.6944 33.1566 79.3024 33.3542C79.5577 33.4372 79.8361 33.4629 80.1193 33.4184C80.9507 33.288 81.8002 33.1796 82.6443 33.0963C83.6089 33.0011 84.312 32.1445 84.2141 31.183C84.1169 30.2209 83.2563 29.5183 82.2908 29.6132C81.3799 29.7026 80.4627 29.8195 79.5644 29.9615C78.607 30.1121 77.9548 31.0077 78.108 31.9628ZM91.4032 8.78792C91.5362 8.83113 91.6762 8.85954 91.8215 8.87C92.6823 8.93231 93.544 9.0111 94.4067 9.10633C95.3708 9.21299 96.2372 8.5209 96.3422 7.56073C96.4464 6.60025 95.7492 5.73508 94.7867 5.62802C93.8797 5.52734 92.9733 5.4448 92.0685 5.37898C91.1012 5.30898 90.2617 6.0332 90.1937 6.99736C90.1359 7.81658 90.6532 8.54424 91.4032 8.78792ZM84.3099 8.63613C84.4971 8.69695 84.6978 8.7272 84.9062 8.72124C85.7695 8.69542 86.6346 8.68735 87.5013 8.69407C88.4709 8.70282 89.2621 7.92607 89.2681 6.9598C89.2741 5.99346 88.4937 5.19832 87.5237 5.19477C86.6126 5.18617 85.7027 5.1959 84.7953 5.22174C83.8262 5.24994 83.0655 6.05637 83.096 7.02287C83.1199 7.78159 83.6247 8.41351 84.3099 8.63613ZM77.2503 9.20042C77.4917 9.27886 77.7541 9.30661 78.0225 9.27169C78.8772 9.1596 79.7351 9.06285 80.5962 8.98249C81.5614 8.8928 82.2692 8.03957 82.1766 7.07712C82.0844 6.11487 81.2277 5.40717 80.2612 5.49822C79.3565 5.58239 78.4549 5.68287 77.5569 5.80065C76.5957 5.92667 75.921 6.80592 76.0495 7.76476C76.1421 8.45505 76.6271 8.99795 77.2503 9.20042ZM71.302 33.8517C71.4821 34.4087 71.9151 34.8135 72.433 34.9817C72.7724 35.092 73.1478 35.1008 73.5126 34.9841C74.3151 34.7274 75.1384 34.4901 75.9591 34.279C76.8976 34.0369 77.4601 33.0825 77.2154 32.147C76.9717 31.211 76.0129 30.6498 75.074 30.889C74.1878 31.1175 73.2991 31.374 72.4323 31.651C71.5096 31.9458 71.0034 32.9319 71.302 33.8517ZM92.1913 31.4011C92.0604 32.2603 92.5806 33.0697 93.3844 33.3309C93.4741 33.3601 93.5674 33.3823 93.664 33.3975C94.4959 33.525 95.3397 33.6797 96.1723 33.8577C97.121 34.06 98.0524 33.4582 98.2535 32.5131C98.4545 31.5669 97.8417 30.6457 96.8994 30.4347C96.0004 30.2432 95.0891 30.0756 94.1902 29.938C93.2316 29.7909 92.3366 30.4459 92.1913 31.4011ZM100.269 34.9382C100.276 34.9404 100.283 34.9426 100.289 34.9449L100.68 35.0692C101.362 35.2905 102.034 35.527 102.697 35.7783C102.724 35.788 102.751 35.7975 102.777 35.8063C103.663 36.0941 104.628 35.6404 104.959 34.7637C105.302 33.86 104.844 32.849 103.936 32.5056C103.222 32.2356 102.497 31.9803 101.762 31.7415L101.331 31.6042C100.405 31.3158 99.4209 31.8288 99.1333 32.7513C98.8479 33.6672 99.3556 34.6414 100.269 34.9382ZM70.2815 10.476C70.5776 10.5722 70.9027 10.5915 71.2275 10.5147C72.0676 10.3171 72.9122 10.1352 73.7609 9.96813C74.712 9.7814 75.3287 8.86171 75.1393 7.91274C74.9504 6.96485 74.0249 6.34702 73.0739 6.53475C72.1829 6.70963 71.2957 6.901 70.4136 7.10842C69.4704 7.33008 68.8879 8.27254 69.1125 9.21317C69.2599 9.83051 69.7179 10.2928 70.2815 10.476ZM107.24 9.94034C109.676 2.44485 117.778 -1.66345 125.302 0.781303C132.827 3.22607 136.967 11.3122 134.531 18.8077C132.096 26.3024 123.994 30.4107 116.47 27.9659C108.945 25.5212 104.805 17.435 107.24 9.94034ZM110.581 11.0258C108.742 16.6852 111.869 22.792 117.551 24.6382C123.233 26.4845 129.352 23.3816 131.191 17.7222C133.03 12.062 129.903 5.95525 124.221 4.10901C118.539 2.2628 112.42 5.36565 110.581 11.0258ZM95.2007 123.656C95.4732 123.744 95.7709 123.767 96.072 123.711C96.5192 123.626 96.9654 123.534 97.4091 123.436C98.3556 123.229 98.9524 122.296 98.7424 121.352C98.5328 120.408 97.5949 119.81 96.6477 120.018C96.2361 120.108 95.8222 120.193 95.4075 120.272C94.4554 120.453 93.8324 121.369 94.0156 122.318C94.1412 122.967 94.6114 123.464 95.2007 123.656ZM98.5004 9.66762C98.5787 9.69306 98.6594 9.71389 98.7426 9.72836C99.1632 9.80212 99.5835 9.87945 100.004 9.962C100.956 10.1483 101.877 9.5306 102.062 8.58202C102.247 7.63432 101.625 6.71554 100.673 6.52749C100.23 6.44105 99.7872 6.35817 99.3435 6.28049C98.3877 6.11365 97.4789 6.74891 97.3134 7.70108C97.1618 8.56981 97.6819 9.40168 98.5004 9.66762ZM85.125 31.1368C85.1276 31.9128 85.6367 32.5704 86.3393 32.7987C86.5118 32.8548 86.6959 32.8849 86.8873 32.8843C87.7338 32.8836 88.5914 32.9071 89.4367 32.9545C90.4047 33.0086 91.2324 32.2706 91.2844 31.3058C91.3371 30.3403 90.5952 29.5181 89.6264 29.4593C88.7142 29.4082 87.7882 29.383 86.874 29.3841C85.9046 29.3853 85.1212 30.1701 85.125 31.1368ZM151.253 53.3309C151.556 54.1424 151.844 54.959 152.115 55.7828C152.297 56.335 152.728 56.7366 153.243 56.9039C153.585 57.015 153.964 57.0231 154.331 56.9036C155.253 56.6038 155.754 55.6151 155.451 54.6966C155.165 53.8302 154.862 52.9694 154.543 52.1167C154.205 51.2102 153.194 50.746 152.285 51.0821C151.377 51.4175 150.914 52.4249 151.253 53.3309ZM148.502 46.9651C148.885 47.7427 149.254 48.5281 149.608 49.3205C149.82 49.7925 150.215 50.1264 150.672 50.2749C151.07 50.4043 151.515 50.3936 151.928 50.2105C152.813 49.8191 153.21 48.7852 152.815 47.9014C152.443 47.0692 152.055 46.2452 151.653 45.4272C151.225 44.5589 150.172 44.1997 149.302 44.624C148.432 45.0482 148.074 46.0967 148.502 46.9651ZM129.608 94.5194C128.723 94.1026 127.684 94.5007 127.281 95.3794C127.106 95.7633 126.925 96.1431 126.739 96.5201C126.312 97.3864 126.671 98.4363 127.542 98.8637C127.619 98.9015 127.697 98.9331 127.777 98.959C128.594 99.2244 129.502 98.8594 129.892 98.0689C130.092 97.6625 130.286 97.2531 130.476 96.8396C130.878 95.9617 130.49 94.9228 129.608 94.5194ZM134.467 82.6631C134.582 81.7036 133.894 80.8316 132.932 80.7139C131.969 80.5976 131.096 81.2803 130.981 82.2399C130.88 83.0784 130.754 83.924 130.605 84.7541C130.449 85.625 130.969 86.4613 131.791 86.7283C131.866 86.7528 131.945 86.7728 132.025 86.7873C132.98 86.9592 133.892 86.3277 134.062 85.3762C134.222 84.4806 134.359 83.5676 134.467 82.6631ZM132.471 91.7177C132.674 91.0895 132.865 90.4607 133.041 89.831C133.302 88.9007 132.75 87.9364 131.823 87.6718C130.888 87.4096 129.92 87.951 129.659 88.8811C129.495 89.4664 129.318 90.0512 129.13 90.633C129.056 90.8597 128.98 91.0865 128.903 91.3112C128.59 92.2254 129.08 93.2209 129.998 93.5353C130.007 93.5382 130.016 93.5411 130.025 93.5439C130.935 93.8398 131.917 93.3539 132.227 92.4486C132.31 92.2061 132.391 91.963 132.471 91.7177ZM153.345 59.9377C153.564 60.7752 153.767 61.6173 153.955 62.4641C154.094 63.0932 154.557 63.5686 155.13 63.755C155.417 63.8482 155.732 63.8696 156.048 63.8007C156.994 63.5945 157.593 62.6617 157.383 61.7171C157.186 60.8276 156.973 59.9426 156.743 59.0622C156.498 58.1266 155.54 57.5648 154.601 57.8057C153.662 58.047 153.1 59.0014 153.345 59.9377ZM156.772 85.9467C155.814 85.7979 154.917 86.4514 154.77 87.406C154.638 88.2587 154.49 89.1114 154.325 89.964C154.154 90.841 154.674 91.6933 155.506 91.9636C155.573 91.9856 155.643 92.0039 155.715 92.0182C156.667 92.2035 157.588 91.5849 157.772 90.6369C157.946 89.7403 158.102 88.8434 158.24 87.9462C158.388 86.9908 157.728 86.092 156.772 85.9467ZM155.508 92.9362C154.569 92.6913 153.611 93.2513 153.368 94.1863C153.151 95.0203 152.917 95.8534 152.666 96.6863C152.391 97.5993 152.901 98.5624 153.806 98.8567C153.819 98.8606 153.831 98.8646 153.843 98.8686C154.772 99.148 155.751 98.6253 156.029 97.7C156.293 96.8246 156.539 95.9488 156.767 95.0717C157.01 94.1366 156.433 93.1588 155.508 92.9362ZM155.468 73.6058C155.513 74.4683 155.541 75.3334 155.553 76.1995C155.564 76.969 156.071 77.6182 156.768 77.8445C156.945 77.9021 157.135 77.9324 157.333 77.9301C158.302 77.919 159.077 77.1272 159.065 76.1602C159.052 75.249 159.022 74.3401 158.975 73.4339C158.925 72.4682 158.102 71.7238 157.131 71.7721C156.163 71.8195 155.418 72.6411 155.468 73.6058ZM157.315 78.8693C156.346 78.8186 155.522 79.5594 155.473 80.5252C155.429 81.3851 155.369 82.2474 155.292 83.1108C155.218 83.94 155.737 84.686 156.498 84.9336C156.622 84.9736 156.751 85.0011 156.885 85.0134C157.851 85.1008 158.703 84.3916 158.789 83.4297C158.871 82.5212 158.934 81.6147 158.98 80.7091C159.029 79.744 158.283 78.9197 157.315 78.8693ZM154.756 66.7197C154.889 67.5738 155.005 68.4317 155.106 69.2934C155.188 69.9955 155.677 70.5531 156.31 70.759C156.542 70.8344 156.794 70.8633 157.052 70.834C158.016 70.7239 158.706 69.8569 158.594 68.8962C158.488 67.9916 158.365 67.0903 158.226 66.1926C158.078 65.2355 157.18 64.579 156.222 64.726C155.264 64.8718 154.608 65.7642 154.756 66.7197ZM118.22 100.752C124.348 102.743 127.721 109.329 125.737 115.435C123.754 121.539 117.154 124.886 111.025 122.894C104.897 120.903 101.524 114.316 103.507 108.212C105.491 102.106 112.091 98.7603 118.22 100.752ZM117.139 104.079C112.852 102.687 108.236 105.027 106.848 109.297C105.461 113.567 107.82 118.174 112.106 119.567C116.393 120.959 121.009 118.619 122.397 114.349C123.784 110.079 121.425 105.472 117.139 104.079ZM137.521 30.9196C137.811 31.2357 138.098 31.5542 138.382 31.8745C138.597 32.118 138.866 32.2879 139.155 32.3817C139.726 32.5673 140.377 32.4565 140.86 32.0321C141.586 31.3933 141.654 30.2873 141.012 29.5622C140.715 29.2268 140.415 28.893 140.112 28.5618C139.456 27.8476 138.346 27.7961 137.631 28.4474C136.916 29.098 136.867 30.2048 137.521 30.9196ZM129.752 59.9732C128.84 60.2982 128.365 61.2993 128.693 62.2096C128.979 63.0039 129.245 63.8172 129.485 64.6269C129.655 65.2032 130.096 65.627 130.629 65.8002C130.954 65.9056 131.313 65.918 131.665 65.8159C132.595 65.5442 133.127 64.5726 132.852 63.6446C132.594 62.7703 132.307 61.8927 131.998 61.0344C131.671 60.1242 130.666 59.6484 129.752 59.9732ZM125.915 56.0174C126.32 56.7616 126.708 57.5262 127.068 58.2889C127.283 58.7451 127.67 59.0659 128.116 59.2107C128.525 59.3437 128.984 59.3283 129.404 59.1316C130.281 58.7215 130.657 57.6797 130.244 56.8044C129.856 55.9821 129.438 55.1573 129.001 54.3542C128.538 53.5032 127.472 53.1866 126.62 53.6462C125.768 54.105 125.452 55.1665 125.915 56.0174ZM122.555 47.8659C121.784 48.4497 121.635 49.5475 122.222 50.3177C122.738 50.9935 123.237 51.6902 123.708 52.3885C123.936 52.7267 124.262 52.961 124.623 53.0782C125.118 53.2392 125.68 53.18 126.145 52.8694C126.95 52.3315 127.163 51.244 126.621 50.4411C126.113 49.6856 125.572 48.9333 125.016 48.2037C124.428 47.4318 123.326 47.2821 122.555 47.8659ZM134.77 75.3552C134.736 74.3883 133.919 73.6298 132.952 73.6659C131.983 73.6986 131.226 74.5081 131.262 75.4744C131.292 76.3197 131.298 77.1749 131.28 78.015C131.262 78.8068 131.774 79.4888 132.493 79.7225C132.652 79.774 132.821 79.8037 132.996 79.8076C133.965 79.8315 134.769 79.0677 134.79 78.1011C134.81 77.1924 134.804 76.2687 134.77 75.3552ZM109.118 84.1307C105.183 96.2416 92.0897 102.88 79.9311 98.9293C67.7725 94.9788 61.0821 81.9125 65.0172 69.8016C68.9522 57.6907 82.0453 51.0516 94.2039 55.0022C106.363 58.9528 113.053 72.0198 109.118 84.1307ZM105.777 83.0452C109.116 72.7688 103.439 61.6819 93.1226 58.3299C82.8061 54.9778 71.697 60.6107 68.358 70.8871C65.0193 81.1627 70.6958 92.2496 81.0123 95.6016C91.3289 98.9537 102.438 93.3208 105.777 83.0452ZM91.2012 120.863C90.3582 120.941 89.5015 120.994 88.6546 121.023C87.6855 121.056 86.9287 121.865 86.9642 122.831C86.9913 123.588 87.4957 124.215 88.1776 124.437C88.3677 124.498 88.5715 124.529 88.7824 124.521C89.696 124.49 90.6202 124.432 91.5294 124.349C92.4949 124.261 93.2041 123.409 93.1134 122.447C93.0233 121.483 92.1663 120.774 91.2012 120.863ZM133.938 68.0896C133.755 67.1408 132.835 66.5195 131.881 66.699C130.93 66.8803 130.307 67.7972 130.491 68.7463C130.652 69.5717 130.79 70.4151 130.902 71.2517C130.994 71.9429 131.479 72.4857 132.102 72.6883C132.344 72.7667 132.606 72.7945 132.874 72.7594C133.835 72.6334 134.511 71.7543 134.382 70.7964C134.261 69.892 134.112 68.9813 133.938 68.0896ZM145.124 40.9058C145.584 41.641 146.029 42.3849 146.461 43.1377C146.687 43.5318 147.043 43.8055 147.444 43.9359C147.898 44.0833 148.41 44.0468 148.857 43.7931C149.699 43.3148 149.991 42.2465 149.509 41.4065C149.055 40.6141 148.585 39.8318 148.101 39.0583C147.587 38.2373 146.505 37.9836 145.682 38.4959C144.86 39.0057 144.609 40.0849 145.124 40.9058ZM141.149 35.215C141.682 35.9009 142.201 36.5969 142.706 37.3028C142.934 37.6201 143.247 37.8387 143.592 37.9508C144.104 38.1171 144.685 38.048 145.156 37.7126C145.944 37.1522 146.126 36.0597 145.562 35.2719C145.03 34.5306 144.484 33.7989 143.924 33.0771C143.329 32.31 142.226 32.1708 141.461 32.7601C140.694 33.3508 140.555 34.4498 141.149 35.215ZM100.784 143.882C99.9363 144.054 99.0835 144.21 98.2279 144.349C97.2714 144.506 96.6248 145.405 96.7832 146.359C96.8943 147.027 97.3715 147.544 97.9759 147.741C98.2344 147.825 98.516 147.851 98.8026 147.804C99.7029 147.657 100.599 147.494 101.491 147.313C102.441 147.12 103.053 146.196 102.857 145.249C102.662 144.302 101.734 143.691 100.784 143.882ZM53.7309 136.524C52.9696 136.101 52.2189 135.664 51.479 135.214C50.6491 134.71 49.5706 134.97 49.0666 135.794C48.5629 136.618 48.8254 137.696 49.6541 138.2C50.4335 138.675 51.224 139.134 52.0254 139.58C52.1274 139.637 52.2323 139.682 52.3391 139.716C53.1213 139.97 53.9986 139.647 54.4128 138.905C54.8837 138.061 54.5783 136.995 53.7309 136.524ZM87.0018 145.241C86.1353 145.238 85.2671 145.218 84.3979 145.182C83.4288 145.141 82.6119 145.891 82.5736 146.857C82.5417 147.659 83.0559 148.358 83.7863 148.595C83.9356 148.643 84.0939 148.672 84.2581 148.679C85.1725 148.717 86.0858 148.738 86.9973 148.741C87.9669 148.744 88.7537 147.964 88.7554 146.997C88.7567 146.031 87.9718 145.242 87.0018 145.241ZM66.4972 142.022C66.4919 142.02 66.4862 142.018 66.4809 142.016L65.9832 141.856C65.3209 141.641 64.6647 141.417 64.0128 141.184C63.0821 140.858 62.0951 141.329 61.7686 142.238C61.4423 143.147 61.9179 144.15 62.8309 144.477C63.5157 144.723 64.2063 144.958 64.8939 145.182L65.4314 145.354C66.3568 145.645 67.3419 145.134 67.6319 144.212C67.9196 143.296 67.4124 142.319 66.4972 142.022ZM73.2052 143.783C72.3576 143.605 71.51 143.411 70.6635 143.2C69.7224 142.966 68.7708 143.537 68.5383 144.475C68.3163 145.372 68.832 146.28 69.7007 146.562C69.7402 146.575 69.7811 146.586 69.8223 146.597C70.7114 146.818 71.6008 147.022 72.4916 147.208C73.441 147.407 74.3706 146.801 74.5674 145.855C74.7648 144.909 74.1498 143.98 73.2052 143.783ZM80.067 144.862C79.2054 144.772 78.3436 144.664 77.4814 144.54C76.5215 144.401 75.6328 145.065 75.4959 146.022C75.3741 146.877 75.8943 147.676 76.6916 147.935C76.7862 147.966 76.8851 147.989 76.987 148.004C77.8934 148.134 78.8002 148.248 79.706 148.343C80.6704 148.445 81.5335 147.748 81.6329 146.787C81.7328 145.826 81.0328 144.963 80.067 144.862ZM59.9695 139.592C59.168 139.246 58.3757 138.887 57.5936 138.514C56.7146 138.11 55.6704 138.467 55.2541 139.339C54.8376 140.211 55.2102 141.255 56.0859 141.673C56.9079 142.064 57.7402 142.441 58.5823 142.804C58.6337 142.826 58.6852 142.845 58.7374 142.862C59.5897 143.139 60.5278 142.729 60.8889 141.892C61.2721 141.006 60.8603 139.975 59.9695 139.592ZM37.2797 123.728C36.9868 123.418 36.6965 123.105 36.41 122.789C35.7581 122.072 34.6496 122.015 33.9301 122.661C33.2115 123.309 33.1563 124.415 33.8074 125.132C34.1097 125.466 34.4159 125.796 34.7247 126.124C34.9344 126.346 35.1884 126.501 35.46 126.589C36.05 126.781 36.7236 126.655 37.2066 126.202C37.9122 125.54 37.9448 124.432 37.2797 123.728ZM44.8097 97.7734C45.2154 97.9052 45.6696 97.891 46.087 97.6998C46.9671 97.2959 47.3504 96.2564 46.9431 95.3785C46.5875 94.6109 46.2494 93.8238 45.9384 93.0383C45.5822 92.1376 44.5626 91.694 43.6602 92.0484C42.7584 92.4012 42.3161 93.417 42.6727 94.3162C43.0084 95.1635 43.373 96.0131 43.7567 96.8402C43.9704 97.3022 44.3603 97.6273 44.8097 97.7734ZM42.354 128.579C41.6956 128.013 41.0488 127.433 40.4149 126.842C39.7044 126.18 38.5947 126.216 37.9334 126.922C37.2717 127.628 37.3105 128.735 38.0196 129.396C38.6877 130.018 39.3678 130.628 40.0612 131.226C40.2441 131.383 40.4498 131.497 40.666 131.567C41.318 131.779 42.0618 131.598 42.5373 131.049C43.1707 130.318 43.0884 129.212 42.354 128.579ZM48.2583 103.929C48.7505 104.089 49.3078 104.032 49.7721 103.726C50.5794 103.192 50.799 102.107 50.2622 101.3C49.7925 100.595 49.3384 99.8682 48.9119 99.1395C48.4223 98.3041 47.3485 98.0189 46.5101 98.5055C45.673 98.9906 45.3907 100.062 45.8799 100.897C46.3401 101.685 46.8308 102.469 47.338 103.231C47.5662 103.574 47.8945 103.811 48.2583 103.929ZM47.8387 132.841C47.1248 132.344 46.4225 131.833 45.7317 131.31C44.9598 130.724 43.8572 130.873 43.272 131.643C42.6867 132.412 42.839 133.51 43.612 134.095C44.3389 134.646 45.0786 135.184 45.8298 135.708C45.976 135.81 46.1326 135.887 46.2937 135.939C47.0095 136.172 47.8216 135.925 48.2742 135.28C48.829 134.488 48.6341 133.396 47.8387 132.841ZM134.132 129.079C133.501 128.341 132.393 128.255 131.657 128.882C130.996 129.445 130.324 129.995 129.643 130.531C128.883 131.129 128.755 132.23 129.357 132.989C129.58 133.271 129.873 133.465 130.191 133.569C130.731 133.744 131.345 133.656 131.823 133.28C132.539 132.716 133.245 132.138 133.941 131.546C134.677 130.919 134.763 129.815 134.132 129.079ZM147.617 112.643C146.797 112.132 145.711 112.379 145.199 113.2C144.739 113.936 144.266 114.661 143.781 115.376C143.238 116.176 143.449 117.264 144.252 117.807C144.392 117.902 144.541 117.974 144.695 118.024C145.42 118.26 146.242 118.002 146.69 117.343C147.2 116.592 147.697 115.829 148.181 115.055C148.693 114.236 148.44 113.156 147.617 112.643ZM139.184 124.069C138.482 123.402 137.371 123.425 136.702 124.123C136.101 124.752 135.489 125.367 134.866 125.969C134.171 126.642 134.156 127.749 134.832 128.444C135.039 128.656 135.285 128.804 135.548 128.89C136.148 129.085 136.832 128.951 137.315 128.484C137.969 127.851 138.614 127.203 139.245 126.543C139.914 125.844 139.886 124.737 139.184 124.069ZM143.698 118.566C142.934 117.975 141.829 118.111 141.236 118.874C140.702 119.561 140.155 120.235 139.598 120.898C138.975 121.638 139.074 122.743 139.817 123.365C139.995 123.514 140.194 123.622 140.403 123.689C141.063 123.904 141.817 123.713 142.29 123.151C142.878 122.453 143.451 121.744 144.013 121.023C144.606 120.259 144.466 119.16 143.698 118.566ZM150.91 106.351C150.035 105.933 148.987 106.283 148.561 107.15C148.179 107.93 147.783 108.7 147.374 109.459C146.915 110.31 147.236 111.371 148.09 111.83C148.185 111.882 148.283 111.923 148.382 111.955C149.174 112.212 150.06 111.878 150.467 111.122C150.898 110.323 151.314 109.514 151.716 108.695C152.142 107.827 151.781 106.778 150.91 106.351ZM153.545 99.7606C152.639 99.4286 151.625 99.8852 151.29 100.792C150.988 101.607 150.672 102.412 150.342 103.209C149.973 104.102 150.4 105.126 151.296 105.497C151.339 105.515 151.383 105.53 151.426 105.545C152.29 105.825 153.236 105.401 153.588 104.551C153.936 103.713 154.268 102.866 154.585 102.01C154.92 101.104 154.455 100.097 153.545 99.7606ZM114.014 139.777C113.215 140.117 112.411 140.44 111.6 140.75C110.695 141.095 110.244 142.106 110.592 143.009C110.79 143.522 111.204 143.89 111.691 144.049C112.06 144.169 112.471 144.168 112.861 144.019C113.714 143.694 114.559 143.354 115.397 142.997C116.288 142.619 116.701 141.591 116.319 140.702C115.938 139.813 114.905 139.399 114.014 139.777ZM107.502 142.163C106.675 142.42 105.841 142.662 105.003 142.888C104.068 143.14 103.517 144.102 103.772 145.034C103.935 145.626 104.382 146.064 104.927 146.241C105.241 146.343 105.587 146.359 105.929 146.266C106.809 146.028 107.684 145.775 108.553 145.506C109.478 145.219 109.993 144.238 109.703 143.315C109.413 142.391 108.428 141.877 107.502 142.163ZM93.9299 144.911C93.0695 144.996 92.2062 145.065 91.3404 145.117C90.3728 145.175 89.6378 146.005 89.6986 146.97C89.7455 147.708 90.2445 148.312 90.9104 148.529C91.1143 148.595 91.3343 148.624 91.5614 148.611C92.4716 148.555 93.3793 148.483 94.2834 148.394C95.2481 148.299 95.9511 147.442 95.8535 146.48C95.7559 145.519 94.8958 144.816 93.9299 144.911ZM58.9488 40.6073C59.1761 40.9263 59.4906 41.1462 59.8373 41.2589C60.3474 41.4246 60.927 41.356 61.3977 41.023C62.0833 40.538 62.7969 40.0639 63.5186 39.6131C64.3395 39.1002 64.5865 38.0208 64.0706 37.2011C63.5547 36.3814 62.4707 36.1334 61.6496 36.6454C60.8712 37.1317 60.1013 37.6432 59.3605 38.1678C58.571 38.7259 58.3864 39.8183 58.9488 40.6073ZM120.253 136.746C119.492 137.164 118.725 137.568 117.949 137.956C117.083 138.391 116.736 139.442 117.174 140.306C117.394 140.741 117.77 141.044 118.2 141.184C118.625 141.322 119.103 141.299 119.532 141.084C120.348 140.675 121.155 140.251 121.953 139.812C122.802 139.346 123.109 138.282 122.639 137.435C122.169 136.589 121.101 136.28 120.253 136.746ZM128.597 133.549C128.045 132.754 126.951 132.554 126.154 133.102C125.439 133.595 124.715 134.074 123.983 134.541C123.166 135.06 122.929 136.142 123.452 136.957C123.68 137.312 124.015 137.558 124.389 137.68C124.871 137.836 125.417 137.785 125.877 137.492C126.646 137.003 127.405 136.501 128.155 135.984C128.952 135.434 129.15 134.344 128.597 133.549ZM44.5674 89.0234C44.3345 88.2166 44.1212 87.3883 43.9328 86.5609C43.7188 85.6183 42.7791 85.0247 41.8325 85.2363C40.8867 85.4482 40.2939 86.3846 40.5087 87.3274C40.7116 88.2197 40.9419 89.1137 41.1938 89.9841C41.3614 90.5659 41.8049 90.9938 42.3416 91.1682C42.663 91.2726 43.0174 91.2862 43.3667 91.1869C44.2984 90.9211 44.8363 89.9524 44.5674 89.0234ZM63.4748 12.4463C63.8259 12.5604 64.2159 12.5659 64.5916 12.4364C65.4077 12.1546 66.229 11.8888 67.056 11.6374C67.9831 11.3567 68.5046 10.3791 68.2208 9.45424C67.9359 8.52995 66.9544 8.00628 66.0276 8.28894C65.1582 8.55169 64.2942 8.83231 63.4367 9.12769C62.5211 9.44366 62.0372 10.4406 62.3564 11.3536C62.5442 11.8924 62.9695 12.2821 63.4748 12.4463ZM56.1773 45.3546C56.784 44.7668 57.4163 44.189 58.056 43.6369C58.7889 43.0047 58.8676 41.8994 58.2318 41.1684C57.5964 40.4373 56.4877 40.3555 55.7555 40.9871C55.064 41.5833 54.3814 42.2077 53.7264 42.8427C53.0322 43.5154 53.0175 44.6235 53.6942 45.3176C53.9007 45.5284 54.1469 45.6767 54.4096 45.762C55.0095 45.9569 55.6942 45.8228 56.1773 45.3546ZM56.9007 15.0896C57.3077 15.2218 57.7633 15.2073 58.1813 15.0143C58.9662 14.6523 59.7576 14.305 60.5558 13.9715C61.4495 13.5981 61.8687 12.5729 61.4923 11.6818C61.116 10.7889 60.0875 10.3685 59.1928 10.7425C58.3552 11.0918 57.5238 11.4567 56.7006 11.8368C55.8211 12.2427 55.4399 13.2829 55.8491 14.1605C56.0636 14.62 56.4525 14.9439 56.9007 15.0896ZM50.6243 18.3792C51.0875 18.5298 51.6108 18.4887 52.0622 18.2222C52.8067 17.7833 53.5599 17.3579 54.3202 16.9467C55.1715 16.4858 55.4854 15.4228 55.0211 14.5732C54.5564 13.7234 53.4897 13.4082 52.6392 13.8693C51.8403 14.3022 51.0507 14.7481 50.2692 15.2091C49.4354 15.7008 49.1611 16.7739 49.6564 17.6058C49.8832 17.9875 50.2324 18.2519 50.6243 18.3792ZM33.2793 112.965C31.2956 119.07 24.6955 122.416 18.5668 120.425C12.4382 118.433 9.06552 111.847 11.0493 105.742C13.0328 99.637 19.6328 96.2908 25.7615 98.2821C31.8901 100.273 35.2629 106.86 33.2793 112.965ZM29.9385 111.879C31.3257 107.61 28.9668 103.003 24.6802 101.61C20.3937 100.217 15.7773 102.558 14.3901 106.827C13.0027 111.097 15.3615 115.704 19.6481 117.097C23.9346 118.49 28.5511 116.149 29.9385 111.879ZM41.3123 70.2344C41.3844 70.2578 41.459 70.2767 41.5353 70.2916C42.4888 70.4694 43.405 69.8437 43.5812 68.8932C43.7358 68.0623 43.9161 67.2272 44.1174 66.4105C44.3491 65.4727 43.7689 64.536 42.8321 64.2899C41.89 64.0575 40.9392 64.6288 40.708 65.5668C40.4898 66.449 40.295 67.3512 40.1285 68.2492C39.9661 69.1224 40.486 69.9659 41.3123 70.2344ZM46.3073 52.1123C45.8334 52.888 45.3755 53.6895 44.9453 54.4946C44.4902 55.3473 44.8152 56.4077 45.6713 56.8628C45.7643 56.9128 45.8599 56.9528 45.957 56.9844C46.7513 57.2425 47.6404 56.9044 48.0458 56.1451C48.4442 55.3988 48.8685 54.6565 49.3073 53.9386C49.8113 53.1134 49.5481 52.0362 48.7194 51.5325C47.8916 51.0274 46.8113 51.2881 46.3073 52.1123ZM49.2312 50.7801C49.3906 50.9001 49.5638 50.9887 49.7433 51.047C50.4373 51.2725 51.227 51.0485 51.6892 50.4353C52.1948 49.7642 52.7302 49.0948 53.2805 48.4473C53.9064 47.7102 53.8131 46.6056 53.0725 45.9806C52.3312 45.3553 51.2237 45.4445 50.5982 46.1817C50.0042 46.8815 49.4261 47.6036 48.8791 48.3294C48.2977 49.1016 48.4554 50.1983 49.2312 50.7801ZM42.0103 61.1882C41.6915 62.0996 42.1754 63.0985 43.0909 63.4184C43.1033 63.4233 43.1159 63.4274 43.1286 63.4315C44.0339 63.7257 45.0119 63.2467 45.3265 62.3466C45.6058 61.5481 45.9113 60.7492 46.2339 59.9728C46.6051 59.0803 46.1797 58.0555 45.2839 57.6837C44.3772 57.31 43.3606 57.7332 42.9898 58.626C42.6413 59.4639 42.3116 60.326 42.0103 61.1882ZM43.8415 21.6562C44.0679 21.9615 44.3749 22.1726 44.7113 22.2819C45.2321 22.4511 45.8238 22.3757 46.2972 22.0275C46.9942 21.5156 47.6998 21.0174 48.4148 20.532C49.2155 19.9883 49.4208 18.8999 48.8739 18.1006C48.3271 17.3023 47.2344 17.0937 46.4337 17.6374C45.6829 18.147 44.9409 18.6712 44.2091 19.2095C43.4295 19.7816 43.2649 20.8779 43.8415 21.6562ZM39.3527 75.5187C39.33 76.3143 39.8433 77.002 40.5659 77.2368C40.7213 77.2873 40.8863 77.3166 41.0576 77.322C42.027 77.3513 42.8351 76.5918 42.8625 75.6261C42.8866 74.7807 42.9361 73.9273 43.0094 73.0898C43.0939 72.1264 42.376 71.2788 41.4128 71.1904C40.447 71.1048 39.5952 71.8151 39.5111 72.7776C39.4319 73.6833 39.3784 74.6054 39.3527 75.5187ZM39.7111 82.8206C39.7995 83.5158 40.2858 84.0646 40.9134 84.2685C41.1511 84.3458 41.4093 84.374 41.6738 84.3413C42.6356 84.2218 43.3165 83.3472 43.1944 82.3878C43.0878 81.5492 43.0045 80.6995 42.9471 79.8617C42.8811 78.898 42.0437 78.167 41.0758 78.2306C40.1083 78.2944 39.3776 79.1276 39.4438 80.0923C39.506 80.9972 39.5958 81.9155 39.7111 82.8206ZM18.0672 62.8299C18.1157 62.8456 18.1648 62.8598 18.2157 62.8709C19.1602 63.0907 20.1029 62.505 20.3209 61.5636C20.5144 60.7265 20.7245 59.8912 20.9511 59.055C21.2035 58.1229 20.6432 57.172 19.7142 56.9061C18.7782 56.6522 17.8141 57.2021 17.5613 58.1341C17.3229 59.0123 17.1023 59.8909 16.8989 60.7697C16.6926 61.6611 17.2099 62.5513 18.0672 62.8299ZM17.1476 69.8631C18.1095 69.986 18.9879 69.3086 19.1091 68.3501C19.217 67.4977 19.3414 66.6444 19.4825 65.7912C19.6408 64.8376 18.9879 63.9302 18.0365 63.7764C17.0799 63.6165 16.1761 64.2597 16.0181 65.2134C15.869 66.1108 15.7388 67.0071 15.6253 67.9043C15.5182 68.7516 16.0383 69.5349 16.8246 69.7904C16.9281 69.824 17.0359 69.8492 17.1476 69.8631ZM16.7974 76.9286C17.7669 76.9535 18.5714 76.1909 18.5946 75.2248C18.6152 74.3647 18.6515 73.5035 18.7051 72.6407C18.7656 71.6759 18.0272 70.8431 17.0615 70.7818C16.0931 70.7204 15.2603 71.4522 15.2008 72.4164C15.1447 73.3233 15.1057 74.2286 15.084 75.1332C15.0651 75.9256 15.5778 76.6095 16.2976 76.8434C16.4554 76.8947 16.6231 76.924 16.7974 76.9286ZM18.7833 82.1178C18.7158 81.2597 18.6648 80.3997 18.6302 79.536C18.5915 78.5687 17.7759 77.8151 16.8062 77.8521C15.8372 77.8884 15.0832 78.7006 15.1217 79.6661C15.1577 80.5751 15.2118 81.481 15.2829 82.3835C15.3403 83.1117 15.8365 83.7022 16.4931 83.9155C16.7051 83.9844 16.934 84.0139 17.1704 83.9955C18.1369 83.9225 18.8591 83.082 18.7833 82.1178ZM17.9965 89.672C18.9538 89.5205 19.6054 88.6238 19.4512 87.6692C19.3831 87.2474 19.3188 86.825 19.2579 86.4019C19.1215 85.445 18.2315 84.7804 17.2716 84.9122C16.3117 85.0468 15.6448 85.9322 15.782 86.8893C15.8453 87.3329 15.9133 87.7745 15.9845 88.2171C16.0926 88.889 16.5708 89.41 17.1784 89.6074C17.4341 89.6905 17.7129 89.7164 17.9965 89.672ZM29.254 37.0163C29.4084 37.1294 29.5747 37.213 29.7472 37.2691C30.4498 37.4974 31.2482 37.2646 31.7071 36.6376C32.2182 35.9388 32.7419 35.2511 33.2779 34.5756C33.8786 33.8177 33.7483 32.7173 32.9871 32.117C32.2253 31.5183 31.1224 31.6432 30.521 32.4008C29.9571 33.1122 29.4064 33.8359 28.8682 34.5709C28.2973 35.351 28.4705 36.4456 29.254 37.0163ZM38.4654 26.2713C38.6787 26.5059 38.9412 26.6693 39.2226 26.7608C39.8021 26.9491 40.4629 26.8315 40.9455 26.3954C41.5875 25.8154 42.24 25.2478 42.9028 24.6925C43.6443 24.0702 43.7378 22.9663 43.1124 22.2268C42.4861 21.4862 41.3798 21.3898 40.6386 22.0113C39.9429 22.5955 39.2582 23.1903 38.5842 23.7995C37.8662 24.4482 37.8132 25.5547 38.4654 26.2713ZM33.5858 31.408C33.7745 31.578 33.9899 31.6991 34.2166 31.7728C34.8565 31.9807 35.5868 31.8102 36.0651 31.2803C36.6449 30.6379 37.2362 30.0073 37.8379 29.389C38.5124 28.6965 38.4946 27.5886 37.7978 26.9149C37.1012 26.2403 35.99 26.2566 35.3151 26.9489C34.6824 27.5984 34.0611 28.2606 33.4514 28.9365C32.804 29.654 32.864 30.7612 33.5858 31.408ZM22.4256 49.3871C22.4872 49.4152 22.5497 49.4391 22.613 49.4597C23.4511 49.732 24.3772 49.3404 24.7501 48.5229C25.1094 47.7351 25.4821 46.9572 25.8686 46.1881C26.3019 45.3247 25.9503 44.2728 25.0833 43.8383C24.2141 43.3997 23.1611 43.7527 22.7273 44.616C22.3219 45.4238 21.9303 46.2406 21.553 47.0673C21.1519 47.9466 21.5426 48.9852 22.4256 49.3871ZM25.5247 43.0279C25.6361 43.0929 25.7517 43.1439 25.8695 43.1822C26.6379 43.4318 27.5022 43.1252 27.9255 42.4023C28.3621 41.6568 28.8118 40.9208 29.2744 40.1963C29.7946 39.3809 29.5523 38.2989 28.7339 37.7788C27.915 37.2603 26.8311 37.4974 26.3105 38.3117C25.8235 39.075 25.3509 39.8484 24.8916 40.6333C24.4033 41.4671 24.6867 42.5392 25.5247 43.0279ZM19.9838 56.0236C19.9912 56.026 19.9985 56.0283 20.0059 56.0307C20.9181 56.3272 21.9012 55.8382 22.2093 54.9315C22.4876 54.1111 22.7801 53.2998 23.087 52.4968C23.4315 51.5947 22.9762 50.5828 22.07 50.2371C21.1404 49.865 20.1493 50.3424 19.8046 51.2453C19.4829 52.0884 19.1751 52.9414 18.8828 53.8021C18.5724 54.7171 19.0653 55.7117 19.9838 56.0236Z" fill="url(#paint0_linear_4078_24)" shape-rendering="crispEdges"/>
</g>
<defs>
<filter id="filter0_di_4078_24" x="0.480469" y="0.0751953" width="168.584" height="168.666" filterUnits="userSpaceOnUse" color-interpolation-filters="sRGB">
<feFlood flood-opacity="0" result="BackgroundImageFix"/>
<feColorMatrix in="SourceAlpha" type="matrix" values="0 0 0 0 0 0 0 0 0 0 0 0 0 0 0 0 0 0 127 0" result="hardAlpha"/>
<feOffset dy="10"/>
<feGaussianBlur stdDeviation="5"/>
<feComposite in2="hardAlpha" operator="out"/>
<feColorMatrix type="matrix" values="0 0 0 0 0.0250694 0 0 0 0 0.0250694 0 0 0 0 0.158333 0 0 0 0.55 0"/>
<feBlend mode="normal" in2="BackgroundImageFix" result="effect1_dropShadow_4078_24"/>
<feBlend mode="normal" in="SourceGraphic" in2="effect1_dropShadow_4078_24" result="shape"/>
<feColorMatrix in="SourceAlpha" type="matrix" values="0 0 0 0 0 0 0 0 0 0 0 0 0 0 0 0 0 0 127 0" result="hardAlpha"/>
<feOffset dy="1"/>
<feComposite in2="hardAlpha" operator="arithmetic" k2="-1" k3="1"/>
<feColorMatrix type="matrix" values="0 0 0 0 0.861944 0 0 0 0 0.861944 0 0 0 0 0.966667 0 0 0 0.25 0"/>
<feBlend mode="normal" in2="shape" result="effect2_innerShadow_4078_24"/>
</filter>
<linearGradient id="paint0_linear_4078_24" x1="86.9376" y1="-11.6842" x2="38.731" y2="136.681" gradientUnits="userSpaceOnUse">
<stop stop-color="#D5D5EE" stop-opacity="0.2"/>
<stop offset="1" stop-color="white" stop-opacity="0.02"/>
</linearGradient>
</defs>
</svg>
