<svg width="145" height="156" viewBox="0 0 145 156" fill="none" xmlns="http://www.w3.org/2000/svg">
<g filter="url(#filter0_di_4078_30)">
<path d="M159.68 94.4601C159.763 94.2035 159.79 93.9424 159.771 93.6891L171.555 57.4223C172.066 55.849 171.202 54.1533 169.629 53.6421L136.913 43.0121L143.104 23.9575C143.99 21.2307 142.492 18.292 139.765 17.406L87.7903 0.518223C85.0634 -0.367787 82.1244 1.12932 81.2384 3.85618L75.0472 22.9107L42.3314 12.2807C40.7581 11.7695 39.0624 12.6335 38.5512 14.2069L10.5031 100.53C9.99189 102.103 10.8559 103.799 12.4292 104.31L139.726 145.672C141.3 146.183 142.995 145.319 143.507 143.746L159.3 95.1373C159.465 94.9439 159.597 94.7168 159.68 94.4601ZM85.0427 5.09224C85.247 4.46347 85.925 4.118 86.5542 4.32245L138.529 21.2102C139.159 21.4147 139.504 22.0927 139.3 22.7215L133.109 41.776L78.8515 24.1468L85.0427 5.09224ZM75.7133 27.333L133.775 46.1983L167.441 57.1373L156.349 91.275L113.528 77.3616L115.62 70.9234C116.131 69.35 115.267 67.6543 113.694 67.1431L80.3448 56.3073C78.7715 55.7961 77.0758 56.6601 76.5646 58.2334L74.4727 64.6717L30.9544 50.5317L42.0464 16.394L75.7133 27.333ZM111.507 70.6383L107.46 83.094L76.0127 72.8763L80.0598 60.4206L111.507 70.6383ZM14.6163 100.815L29.7183 54.3359L73.2366 68.4759L71.8994 72.5912C71.3882 74.1646 72.2522 75.8603 73.8256 76.3715L107.175 87.2073C108.748 87.7185 110.444 86.8545 110.955 85.2812L112.292 81.1658L155.113 95.0793L140.011 141.558L14.6163 100.815Z" fill="url(#paint0_linear_4078_30)" shape-rendering="crispEdges"/>
</g>
<defs>
<filter id="filter0_di_4078_30" x="0.355957" y="0.263184" width="181.346" height="165.556" filterUnits="userSpaceOnUse" color-interpolation-filters="sRGB">
<feFlood flood-opacity="0" result="BackgroundImageFix"/>
<feColorMatrix in="SourceAlpha" type="matrix" values="0 0 0 0 0 0 0 0 0 0 0 0 0 0 0 0 0 0 127 0" result="hardAlpha"/>
<feOffset dy="10"/>
<feGaussianBlur stdDeviation="5"/>
<feComposite in2="hardAlpha" operator="out"/>
<feColorMatrix type="matrix" values="0 0 0 0 0.0250694 0 0 0 0 0.0250694 0 0 0 0 0.158333 0 0 0 0.55 0"/>
<feBlend mode="normal" in2="BackgroundImageFix" result="effect1_dropShadow_4078_30"/>
<feBlend mode="normal" in="SourceGraphic" in2="effect1_dropShadow_4078_30" result="shape"/>
<feColorMatrix in="SourceAlpha" type="matrix" values="0 0 0 0 0 0 0 0 0 0 0 0 0 0 0 0 0 0 127 0" result="hardAlpha"/>
<feOffset dy="1"/>
<feComposite in2="hardAlpha" operator="arithmetic" k2="-1" k3="1"/>
<feColorMatrix type="matrix" values="0 0 0 0 0.861944 0 0 0 0 0.861944 0 0 0 0 0.966667 0 0 0 0.25 0"/>
<feBlend mode="normal" in2="shape" result="effect2_innerShadow_4078_30"/>
</filter>
<linearGradient id="paint0_linear_4078_30" x1="88.4112" y1="0.719982" x2="50.7112" y2="116.749" gradientUnits="userSpaceOnUse">
<stop stop-color="#D5D5EE" stop-opacity="0.2"/>
<stop offset="1" stop-color="white" stop-opacity="0.02"/>
</linearGradient>
</defs>
</svg>
